<mxfile host="app.diagrams.net" modified="2023-06-07T03:23:18.116Z" agent="Mozilla/5.0 (Windows NT 10.0; Win64; x64) AppleWebKit/537.36 (KHTML, like Gecko) Chrome/114.0.0.0 Safari/537.36" etag="HnWW_jN2fYPmhTb2CP7l" version="21.3.7" type="github">
  <diagram name="Page-1" id="3l4pwZxS6KobIsPwtCy4">
    <mxGraphModel dx="7170" dy="3495" grid="1" gridSize="10" guides="1" tooltips="1" connect="1" arrows="1" fold="1" page="1" pageScale="1" pageWidth="850" pageHeight="1100" math="0" shadow="0">
      <root>
        <mxCell id="0" />
        <mxCell id="1" parent="0" />
        <mxCell id="H7dNSjDBitGNbYNH8bIm-304" value="" style="group" vertex="1" connectable="0" parent="1">
          <mxGeometry x="20" y="30" width="1641.5" height="2135" as="geometry" />
        </mxCell>
        <mxCell id="H7dNSjDBitGNbYNH8bIm-1" value="" style="group" vertex="1" connectable="0" parent="H7dNSjDBitGNbYNH8bIm-304">
          <mxGeometry x="550.5" y="1508.5" width="438.5" height="626.5" as="geometry" />
        </mxCell>
        <mxCell id="H7dNSjDBitGNbYNH8bIm-2" value="assign cFace &lt;br&gt;as counter &lt;br&gt;outside all loops" style="rounded=0;whiteSpace=wrap;html=1;" vertex="1" parent="H7dNSjDBitGNbYNH8bIm-1">
          <mxGeometry x="160" y="62" width="120" height="60" as="geometry" />
        </mxCell>
        <mxCell id="H7dNSjDBitGNbYNH8bIm-3" value="show [cface] = face[][]&lt;br&gt;to the number of correct suit" style="rounded=0;whiteSpace=wrap;html=1;" vertex="1" parent="H7dNSjDBitGNbYNH8bIm-1">
          <mxGeometry x="160" y="488.5" width="120" height="60" as="geometry" />
        </mxCell>
        <mxCell id="H7dNSjDBitGNbYNH8bIm-4" value="sym &amp;lt; 4 ?" style="rhombus;whiteSpace=wrap;html=1;" vertex="1" parent="H7dNSjDBitGNbYNH8bIm-1">
          <mxGeometry x="145" y="217.5" width="150" height="80" as="geometry" />
        </mxCell>
        <mxCell id="H7dNSjDBitGNbYNH8bIm-5" value="End deal&lt;br&gt;(face values)" style="ellipse;whiteSpace=wrap;html=1;" vertex="1" parent="H7dNSjDBitGNbYNH8bIm-1">
          <mxGeometry y="237.5" width="120" height="40" as="geometry" />
        </mxCell>
        <mxCell id="H7dNSjDBitGNbYNH8bIm-6" value="(loop ends)&lt;br&gt;increment sym" style="rounded=0;whiteSpace=wrap;html=1;" vertex="1" parent="H7dNSjDBitGNbYNH8bIm-1">
          <mxGeometry x="318.5" y="227.5" width="120" height="60" as="geometry" />
        </mxCell>
        <mxCell id="H7dNSjDBitGNbYNH8bIm-7" value="Begin deal&amp;nbsp;&lt;br&gt;(face values)" style="ellipse;whiteSpace=wrap;html=1;" vertex="1" parent="H7dNSjDBitGNbYNH8bIm-1">
          <mxGeometry x="160" width="120" height="40" as="geometry" />
        </mxCell>
        <mxCell id="H7dNSjDBitGNbYNH8bIm-8" value="&amp;nbsp;outer loop starts - assign sym as outer loop counter" style="rounded=0;whiteSpace=wrap;html=1;" vertex="1" parent="H7dNSjDBitGNbYNH8bIm-1">
          <mxGeometry x="160" y="139.5" width="120" height="60" as="geometry" />
        </mxCell>
        <mxCell id="H7dNSjDBitGNbYNH8bIm-9" value="&amp;nbsp;inner loop starts - assign rank as outer loop counter" style="rounded=0;whiteSpace=wrap;html=1;" vertex="1" parent="H7dNSjDBitGNbYNH8bIm-1">
          <mxGeometry x="160" y="315.5" width="120" height="60" as="geometry" />
        </mxCell>
        <mxCell id="H7dNSjDBitGNbYNH8bIm-10" value="rank &amp;lt; 13?" style="rhombus;whiteSpace=wrap;html=1;" vertex="1" parent="H7dNSjDBitGNbYNH8bIm-1">
          <mxGeometry x="145" y="392.5" width="150" height="80" as="geometry" />
        </mxCell>
        <mxCell id="H7dNSjDBitGNbYNH8bIm-11" value="show [cface] +=&amp;nbsp; suit[sym]&lt;br&gt;to add the icon" style="rounded=0;whiteSpace=wrap;html=1;" vertex="1" parent="H7dNSjDBitGNbYNH8bIm-1">
          <mxGeometry x="318.5" y="488.5" width="120" height="60" as="geometry" />
        </mxCell>
        <mxCell id="H7dNSjDBitGNbYNH8bIm-12" value="(loop ends)&lt;br&gt;increment rank" style="rounded=0;whiteSpace=wrap;html=1;" vertex="1" parent="H7dNSjDBitGNbYNH8bIm-1">
          <mxGeometry x="160" y="566.5" width="120" height="60" as="geometry" />
        </mxCell>
        <mxCell id="H7dNSjDBitGNbYNH8bIm-13" value="increment cFace" style="rounded=0;whiteSpace=wrap;html=1;" vertex="1" parent="H7dNSjDBitGNbYNH8bIm-1">
          <mxGeometry x="318.5" y="566.5" width="120" height="60" as="geometry" />
        </mxCell>
        <mxCell id="H7dNSjDBitGNbYNH8bIm-14" value="" style="endArrow=classic;html=1;rounded=0;exitX=0.5;exitY=1;exitDx=0;exitDy=0;" edge="1" parent="H7dNSjDBitGNbYNH8bIm-1" source="H7dNSjDBitGNbYNH8bIm-7" target="H7dNSjDBitGNbYNH8bIm-2">
          <mxGeometry width="50" height="50" relative="1" as="geometry">
            <mxPoint x="600" y="366.5" as="sourcePoint" />
            <mxPoint x="650" y="316.5" as="targetPoint" />
          </mxGeometry>
        </mxCell>
        <mxCell id="H7dNSjDBitGNbYNH8bIm-15" value="" style="endArrow=classic;html=1;rounded=0;exitX=0.5;exitY=1;exitDx=0;exitDy=0;entryX=0.5;entryY=0;entryDx=0;entryDy=0;" edge="1" parent="H7dNSjDBitGNbYNH8bIm-1" source="H7dNSjDBitGNbYNH8bIm-2" target="H7dNSjDBitGNbYNH8bIm-8">
          <mxGeometry width="50" height="50" relative="1" as="geometry">
            <mxPoint x="540" y="246.5" as="sourcePoint" />
            <mxPoint x="590" y="196.5" as="targetPoint" />
          </mxGeometry>
        </mxCell>
        <mxCell id="H7dNSjDBitGNbYNH8bIm-16" value="" style="endArrow=classic;html=1;rounded=0;exitX=0.5;exitY=1;exitDx=0;exitDy=0;" edge="1" parent="H7dNSjDBitGNbYNH8bIm-1" source="H7dNSjDBitGNbYNH8bIm-8" target="H7dNSjDBitGNbYNH8bIm-4">
          <mxGeometry width="50" height="50" relative="1" as="geometry">
            <mxPoint x="500" y="476.5" as="sourcePoint" />
            <mxPoint x="550" y="426.5" as="targetPoint" />
          </mxGeometry>
        </mxCell>
        <mxCell id="H7dNSjDBitGNbYNH8bIm-17" value="" style="endArrow=classic;html=1;rounded=0;exitX=0.5;exitY=1;exitDx=0;exitDy=0;entryX=0.5;entryY=0;entryDx=0;entryDy=0;" edge="1" parent="H7dNSjDBitGNbYNH8bIm-1" source="H7dNSjDBitGNbYNH8bIm-4" target="H7dNSjDBitGNbYNH8bIm-9">
          <mxGeometry width="50" height="50" relative="1" as="geometry">
            <mxPoint x="530" y="486.5" as="sourcePoint" />
            <mxPoint x="580" y="436.5" as="targetPoint" />
          </mxGeometry>
        </mxCell>
        <mxCell id="H7dNSjDBitGNbYNH8bIm-18" value="" style="endArrow=classic;html=1;rounded=0;exitX=0.5;exitY=1;exitDx=0;exitDy=0;entryX=0.5;entryY=0;entryDx=0;entryDy=0;" edge="1" parent="H7dNSjDBitGNbYNH8bIm-1" source="H7dNSjDBitGNbYNH8bIm-9" target="H7dNSjDBitGNbYNH8bIm-10">
          <mxGeometry width="50" height="50" relative="1" as="geometry">
            <mxPoint x="490" y="486.5" as="sourcePoint" />
            <mxPoint x="540" y="436.5" as="targetPoint" />
          </mxGeometry>
        </mxCell>
        <mxCell id="H7dNSjDBitGNbYNH8bIm-19" value="" style="endArrow=classic;html=1;rounded=0;exitX=0;exitY=0.5;exitDx=0;exitDy=0;entryX=1;entryY=0.5;entryDx=0;entryDy=0;" edge="1" parent="H7dNSjDBitGNbYNH8bIm-1" source="H7dNSjDBitGNbYNH8bIm-4" target="H7dNSjDBitGNbYNH8bIm-5">
          <mxGeometry width="50" height="50" relative="1" as="geometry">
            <mxPoint y="476.5" as="sourcePoint" />
            <mxPoint x="50" y="426.5" as="targetPoint" />
          </mxGeometry>
        </mxCell>
        <mxCell id="H7dNSjDBitGNbYNH8bIm-20" value="" style="endArrow=classic;html=1;rounded=0;exitX=0.5;exitY=1;exitDx=0;exitDy=0;entryX=0.5;entryY=0;entryDx=0;entryDy=0;" edge="1" parent="H7dNSjDBitGNbYNH8bIm-1" source="H7dNSjDBitGNbYNH8bIm-10" target="H7dNSjDBitGNbYNH8bIm-3">
          <mxGeometry width="50" height="50" relative="1" as="geometry">
            <mxPoint x="410" y="446.5" as="sourcePoint" />
            <mxPoint x="460" y="396.5" as="targetPoint" />
          </mxGeometry>
        </mxCell>
        <mxCell id="H7dNSjDBitGNbYNH8bIm-21" value="" style="endArrow=classic;html=1;rounded=0;exitX=1;exitY=0.5;exitDx=0;exitDy=0;entryX=0.5;entryY=1;entryDx=0;entryDy=0;" edge="1" parent="H7dNSjDBitGNbYNH8bIm-1" source="H7dNSjDBitGNbYNH8bIm-10" target="H7dNSjDBitGNbYNH8bIm-6">
          <mxGeometry width="50" height="50" relative="1" as="geometry">
            <mxPoint x="510" y="446.5" as="sourcePoint" />
            <mxPoint x="560" y="396.5" as="targetPoint" />
            <Array as="points">
              <mxPoint x="379" y="432.5" />
            </Array>
          </mxGeometry>
        </mxCell>
        <mxCell id="H7dNSjDBitGNbYNH8bIm-22" value="" style="endArrow=classic;html=1;rounded=0;exitX=0;exitY=0.5;exitDx=0;exitDy=0;entryX=1;entryY=0.5;entryDx=0;entryDy=0;" edge="1" parent="H7dNSjDBitGNbYNH8bIm-1" source="H7dNSjDBitGNbYNH8bIm-6" target="H7dNSjDBitGNbYNH8bIm-4">
          <mxGeometry width="50" height="50" relative="1" as="geometry">
            <mxPoint x="530" y="386.5" as="sourcePoint" />
            <mxPoint x="580" y="336.5" as="targetPoint" />
          </mxGeometry>
        </mxCell>
        <mxCell id="H7dNSjDBitGNbYNH8bIm-23" value="" style="endArrow=classic;html=1;rounded=0;exitX=1;exitY=0.5;exitDx=0;exitDy=0;entryX=0;entryY=0.5;entryDx=0;entryDy=0;" edge="1" parent="H7dNSjDBitGNbYNH8bIm-1" source="H7dNSjDBitGNbYNH8bIm-3" target="H7dNSjDBitGNbYNH8bIm-11">
          <mxGeometry width="50" height="50" relative="1" as="geometry">
            <mxPoint x="490" y="676.5" as="sourcePoint" />
            <mxPoint x="540" y="626.5" as="targetPoint" />
          </mxGeometry>
        </mxCell>
        <mxCell id="H7dNSjDBitGNbYNH8bIm-24" value="" style="endArrow=classic;html=1;rounded=0;exitX=0.5;exitY=1;exitDx=0;exitDy=0;entryX=0.5;entryY=0;entryDx=0;entryDy=0;" edge="1" parent="H7dNSjDBitGNbYNH8bIm-1" source="H7dNSjDBitGNbYNH8bIm-11" target="H7dNSjDBitGNbYNH8bIm-13">
          <mxGeometry width="50" height="50" relative="1" as="geometry">
            <mxPoint x="340" y="696.5" as="sourcePoint" />
            <mxPoint x="390" y="646.5" as="targetPoint" />
          </mxGeometry>
        </mxCell>
        <mxCell id="H7dNSjDBitGNbYNH8bIm-25" value="" style="endArrow=classic;html=1;rounded=0;exitX=0;exitY=0.5;exitDx=0;exitDy=0;entryX=1;entryY=0.5;entryDx=0;entryDy=0;" edge="1" parent="H7dNSjDBitGNbYNH8bIm-1" source="H7dNSjDBitGNbYNH8bIm-13" target="H7dNSjDBitGNbYNH8bIm-12">
          <mxGeometry width="50" height="50" relative="1" as="geometry">
            <mxPoint x="250" y="726.5" as="sourcePoint" />
            <mxPoint x="300" y="676.5" as="targetPoint" />
          </mxGeometry>
        </mxCell>
        <mxCell id="H7dNSjDBitGNbYNH8bIm-26" value="" style="endArrow=classic;html=1;rounded=0;exitX=0;exitY=0.5;exitDx=0;exitDy=0;entryX=0;entryY=0.5;entryDx=0;entryDy=0;" edge="1" parent="H7dNSjDBitGNbYNH8bIm-1" source="H7dNSjDBitGNbYNH8bIm-12" target="H7dNSjDBitGNbYNH8bIm-10">
          <mxGeometry width="50" height="50" relative="1" as="geometry">
            <mxPoint x="40" y="586.5" as="sourcePoint" />
            <mxPoint x="90" y="536.5" as="targetPoint" />
            <Array as="points">
              <mxPoint x="120" y="596.5" />
              <mxPoint x="120" y="432.5" />
            </Array>
          </mxGeometry>
        </mxCell>
        <mxCell id="H7dNSjDBitGNbYNH8bIm-27" value="No" style="text;html=1;strokeColor=none;fillColor=none;align=center;verticalAlign=middle;whiteSpace=wrap;rounded=0;" vertex="1" parent="H7dNSjDBitGNbYNH8bIm-1">
          <mxGeometry x="215.5" y="458.5" width="60" height="30" as="geometry" />
        </mxCell>
        <mxCell id="H7dNSjDBitGNbYNH8bIm-28" value="Yes" style="text;html=1;strokeColor=none;fillColor=none;align=center;verticalAlign=middle;whiteSpace=wrap;rounded=0;" vertex="1" parent="H7dNSjDBitGNbYNH8bIm-1">
          <mxGeometry x="290.5" y="403.5" width="60" height="30" as="geometry" />
        </mxCell>
        <mxCell id="H7dNSjDBitGNbYNH8bIm-29" value="No" style="text;html=1;strokeColor=none;fillColor=none;align=center;verticalAlign=middle;whiteSpace=wrap;rounded=0;" vertex="1" parent="H7dNSjDBitGNbYNH8bIm-1">
          <mxGeometry x="215.5" y="289.5" width="60" height="30" as="geometry" />
        </mxCell>
        <mxCell id="H7dNSjDBitGNbYNH8bIm-30" value="Yes" style="text;html=1;strokeColor=none;fillColor=none;align=center;verticalAlign=middle;whiteSpace=wrap;rounded=0;" vertex="1" parent="H7dNSjDBitGNbYNH8bIm-1">
          <mxGeometry x="107.5" y="224" width="60" height="30" as="geometry" />
        </mxCell>
        <mxCell id="H7dNSjDBitGNbYNH8bIm-31" value="" style="group" vertex="1" connectable="0" parent="H7dNSjDBitGNbYNH8bIm-304">
          <mxGeometry x="1172.5" y="662.25" width="469" height="1471.25" as="geometry" />
        </mxCell>
        <mxCell id="H7dNSjDBitGNbYNH8bIm-32" value="No" style="text;html=1;strokeColor=none;fillColor=none;align=center;verticalAlign=middle;whiteSpace=wrap;rounded=0;container=0;" vertex="1" parent="H7dNSjDBitGNbYNH8bIm-31">
          <mxGeometry x="23" y="344.25" width="60" height="30" as="geometry" />
        </mxCell>
        <mxCell id="H7dNSjDBitGNbYNH8bIm-33" value="Start played" style="ellipse;whiteSpace=wrap;html=1;container=0;" vertex="1" parent="H7dNSjDBitGNbYNH8bIm-31">
          <mxGeometry x="15" width="120" height="40" as="geometry" />
        </mxCell>
        <mxCell id="H7dNSjDBitGNbYNH8bIm-34" value="End played" style="ellipse;whiteSpace=wrap;html=1;container=0;" vertex="1" parent="H7dNSjDBitGNbYNH8bIm-31">
          <mxGeometry x="349" y="1421.25" width="120" height="40" as="geometry" />
        </mxCell>
        <mxCell id="H7dNSjDBitGNbYNH8bIm-35" value="Switch Choice" style="rounded=0;whiteSpace=wrap;html=1;container=0;" vertex="1" parent="H7dNSjDBitGNbYNH8bIm-31">
          <mxGeometry x="15" y="72" width="120" height="60" as="geometry" />
        </mxCell>
        <mxCell id="H7dNSjDBitGNbYNH8bIm-36" style="edgeStyle=orthogonalEdgeStyle;rounded=0;orthogonalLoop=1;jettySize=auto;html=1;exitX=0.5;exitY=1;exitDx=0;exitDy=0;entryX=0.5;entryY=0;entryDx=0;entryDy=0;" edge="1" parent="H7dNSjDBitGNbYNH8bIm-31" source="H7dNSjDBitGNbYNH8bIm-33" target="H7dNSjDBitGNbYNH8bIm-35">
          <mxGeometry relative="1" as="geometry" />
        </mxCell>
        <mxCell id="H7dNSjDBitGNbYNH8bIm-37" value="Case 1" style="rhombus;whiteSpace=wrap;html=1;container=0;" vertex="1" parent="H7dNSjDBitGNbYNH8bIm-31">
          <mxGeometry y="165.25" width="150" height="80" as="geometry" />
        </mxCell>
        <mxCell id="H7dNSjDBitGNbYNH8bIm-38" value="Case 2" style="rhombus;whiteSpace=wrap;html=1;container=0;" vertex="1" parent="H7dNSjDBitGNbYNH8bIm-31">
          <mxGeometry y="268.25" width="150" height="80" as="geometry" />
        </mxCell>
        <mxCell id="H7dNSjDBitGNbYNH8bIm-39" value="Case 3" style="rhombus;whiteSpace=wrap;html=1;container=0;" vertex="1" parent="H7dNSjDBitGNbYNH8bIm-31">
          <mxGeometry y="371.25" width="150" height="80" as="geometry" />
        </mxCell>
        <mxCell id="H7dNSjDBitGNbYNH8bIm-40" value="Case 4" style="rhombus;whiteSpace=wrap;html=1;container=0;" vertex="1" parent="H7dNSjDBitGNbYNH8bIm-31">
          <mxGeometry y="474.25" width="150" height="80" as="geometry" />
        </mxCell>
        <mxCell id="H7dNSjDBitGNbYNH8bIm-41" value="Case 5" style="rhombus;whiteSpace=wrap;html=1;container=0;" vertex="1" parent="H7dNSjDBitGNbYNH8bIm-31">
          <mxGeometry y="577.25" width="150" height="80" as="geometry" />
        </mxCell>
        <mxCell id="H7dNSjDBitGNbYNH8bIm-42" value="Case 6" style="rhombus;whiteSpace=wrap;html=1;container=0;" vertex="1" parent="H7dNSjDBitGNbYNH8bIm-31">
          <mxGeometry y="680.25" width="150" height="80" as="geometry" />
        </mxCell>
        <mxCell id="H7dNSjDBitGNbYNH8bIm-43" value="Case 7" style="rhombus;whiteSpace=wrap;html=1;container=0;" vertex="1" parent="H7dNSjDBitGNbYNH8bIm-31">
          <mxGeometry y="783.25" width="150" height="80" as="geometry" />
        </mxCell>
        <mxCell id="H7dNSjDBitGNbYNH8bIm-44" value="Case 8" style="rhombus;whiteSpace=wrap;html=1;container=0;" vertex="1" parent="H7dNSjDBitGNbYNH8bIm-31">
          <mxGeometry y="886.5" width="150" height="80" as="geometry" />
        </mxCell>
        <mxCell id="H7dNSjDBitGNbYNH8bIm-45" value="" style="endArrow=classic;html=1;rounded=0;exitX=0.5;exitY=1;exitDx=0;exitDy=0;entryX=0.5;entryY=0;entryDx=0;entryDy=0;" edge="1" parent="H7dNSjDBitGNbYNH8bIm-31" source="H7dNSjDBitGNbYNH8bIm-35" target="H7dNSjDBitGNbYNH8bIm-37">
          <mxGeometry width="50" height="50" relative="1" as="geometry">
            <mxPoint x="395" y="685.25" as="sourcePoint" />
            <mxPoint x="455" y="745.25" as="targetPoint" />
          </mxGeometry>
        </mxCell>
        <mxCell id="H7dNSjDBitGNbYNH8bIm-46" value="" style="endArrow=classic;html=1;rounded=0;exitX=0.5;exitY=1;exitDx=0;exitDy=0;" edge="1" parent="H7dNSjDBitGNbYNH8bIm-31" source="H7dNSjDBitGNbYNH8bIm-37" target="H7dNSjDBitGNbYNH8bIm-38">
          <mxGeometry width="50" height="50" relative="1" as="geometry">
            <mxPoint x="-205" y="435.25" as="sourcePoint" />
            <mxPoint x="-155" y="385.25" as="targetPoint" />
          </mxGeometry>
        </mxCell>
        <mxCell id="H7dNSjDBitGNbYNH8bIm-47" value="" style="endArrow=classic;html=1;rounded=0;exitX=0.5;exitY=1;exitDx=0;exitDy=0;" edge="1" parent="H7dNSjDBitGNbYNH8bIm-31" source="H7dNSjDBitGNbYNH8bIm-38" target="H7dNSjDBitGNbYNH8bIm-39">
          <mxGeometry width="50" height="50" relative="1" as="geometry">
            <mxPoint x="-185" y="575.25" as="sourcePoint" />
            <mxPoint x="-135" y="525.25" as="targetPoint" />
          </mxGeometry>
        </mxCell>
        <mxCell id="H7dNSjDBitGNbYNH8bIm-48" value="" style="endArrow=classic;html=1;rounded=0;exitX=0.5;exitY=1;exitDx=0;exitDy=0;" edge="1" parent="H7dNSjDBitGNbYNH8bIm-31" source="H7dNSjDBitGNbYNH8bIm-39" target="H7dNSjDBitGNbYNH8bIm-40">
          <mxGeometry width="50" height="50" relative="1" as="geometry">
            <mxPoint x="-175" y="515.25" as="sourcePoint" />
            <mxPoint x="-125" y="465.25" as="targetPoint" />
          </mxGeometry>
        </mxCell>
        <mxCell id="H7dNSjDBitGNbYNH8bIm-49" style="edgeStyle=orthogonalEdgeStyle;rounded=0;orthogonalLoop=1;jettySize=auto;html=1;exitX=1;exitY=0.5;exitDx=0;exitDy=0;entryX=0;entryY=0.5;entryDx=0;entryDy=0;" edge="1" parent="H7dNSjDBitGNbYNH8bIm-31" source="H7dNSjDBitGNbYNH8bIm-39" target="H7dNSjDBitGNbYNH8bIm-76">
          <mxGeometry relative="1" as="geometry" />
        </mxCell>
        <mxCell id="H7dNSjDBitGNbYNH8bIm-50" value="" style="endArrow=classic;html=1;rounded=0;exitX=0.5;exitY=1;exitDx=0;exitDy=0;" edge="1" parent="H7dNSjDBitGNbYNH8bIm-31" source="H7dNSjDBitGNbYNH8bIm-40" target="H7dNSjDBitGNbYNH8bIm-41">
          <mxGeometry width="50" height="50" relative="1" as="geometry">
            <mxPoint x="-155" y="525.25" as="sourcePoint" />
            <mxPoint x="-105" y="475.25" as="targetPoint" />
          </mxGeometry>
        </mxCell>
        <mxCell id="H7dNSjDBitGNbYNH8bIm-51" value="" style="endArrow=classic;html=1;rounded=0;exitX=0.5;exitY=1;exitDx=0;exitDy=0;entryX=0.5;entryY=0;entryDx=0;entryDy=0;" edge="1" parent="H7dNSjDBitGNbYNH8bIm-31" source="H7dNSjDBitGNbYNH8bIm-41" target="H7dNSjDBitGNbYNH8bIm-42">
          <mxGeometry width="50" height="50" relative="1" as="geometry">
            <mxPoint x="-135" y="615.25" as="sourcePoint" />
            <mxPoint x="75" y="675.25" as="targetPoint" />
          </mxGeometry>
        </mxCell>
        <mxCell id="H7dNSjDBitGNbYNH8bIm-52" value="" style="endArrow=classic;html=1;rounded=0;exitX=0.5;exitY=1;exitDx=0;exitDy=0;" edge="1" parent="H7dNSjDBitGNbYNH8bIm-31" source="H7dNSjDBitGNbYNH8bIm-42" target="H7dNSjDBitGNbYNH8bIm-43">
          <mxGeometry width="50" height="50" relative="1" as="geometry">
            <mxPoint x="-125" y="765.25" as="sourcePoint" />
            <mxPoint x="-75" y="715.25" as="targetPoint" />
          </mxGeometry>
        </mxCell>
        <mxCell id="H7dNSjDBitGNbYNH8bIm-53" value="Case 12" style="rhombus;whiteSpace=wrap;html=1;container=0;" vertex="1" parent="H7dNSjDBitGNbYNH8bIm-31">
          <mxGeometry y="1297.5" width="150" height="80" as="geometry" />
        </mxCell>
        <mxCell id="H7dNSjDBitGNbYNH8bIm-54" value="Case 11" style="rhombus;whiteSpace=wrap;html=1;container=0;" vertex="1" parent="H7dNSjDBitGNbYNH8bIm-31">
          <mxGeometry y="1194.25" width="150" height="80" as="geometry" />
        </mxCell>
        <mxCell id="H7dNSjDBitGNbYNH8bIm-55" style="edgeStyle=orthogonalEdgeStyle;rounded=0;orthogonalLoop=1;jettySize=auto;html=1;exitX=1;exitY=0.5;exitDx=0;exitDy=0;entryX=0;entryY=0.5;entryDx=0;entryDy=0;" edge="1" parent="H7dNSjDBitGNbYNH8bIm-31" source="H7dNSjDBitGNbYNH8bIm-43" target="H7dNSjDBitGNbYNH8bIm-84">
          <mxGeometry relative="1" as="geometry" />
        </mxCell>
        <mxCell id="H7dNSjDBitGNbYNH8bIm-56" value="Case 10" style="rhombus;whiteSpace=wrap;html=1;container=0;" vertex="1" parent="H7dNSjDBitGNbYNH8bIm-31">
          <mxGeometry y="1091.25" width="150" height="80" as="geometry" />
        </mxCell>
        <mxCell id="H7dNSjDBitGNbYNH8bIm-57" style="edgeStyle=orthogonalEdgeStyle;rounded=0;orthogonalLoop=1;jettySize=auto;html=1;exitX=1;exitY=0.5;exitDx=0;exitDy=0;entryX=0;entryY=0.5;entryDx=0;entryDy=0;" edge="1" parent="H7dNSjDBitGNbYNH8bIm-31" source="H7dNSjDBitGNbYNH8bIm-38" target="H7dNSjDBitGNbYNH8bIm-88">
          <mxGeometry relative="1" as="geometry" />
        </mxCell>
        <mxCell id="H7dNSjDBitGNbYNH8bIm-58" value="Case 9" style="rhombus;whiteSpace=wrap;html=1;container=0;" vertex="1" parent="H7dNSjDBitGNbYNH8bIm-31">
          <mxGeometry y="988.25" width="150" height="80" as="geometry" />
        </mxCell>
        <mxCell id="H7dNSjDBitGNbYNH8bIm-59" style="edgeStyle=orthogonalEdgeStyle;rounded=0;orthogonalLoop=1;jettySize=auto;html=1;exitX=1;exitY=0.5;exitDx=0;exitDy=0;entryX=0;entryY=0.5;entryDx=0;entryDy=0;" edge="1" parent="H7dNSjDBitGNbYNH8bIm-31" source="H7dNSjDBitGNbYNH8bIm-44" target="H7dNSjDBitGNbYNH8bIm-90">
          <mxGeometry relative="1" as="geometry" />
        </mxCell>
        <mxCell id="H7dNSjDBitGNbYNH8bIm-60" value="" style="endArrow=classic;html=1;rounded=0;exitX=0.5;exitY=1;exitDx=0;exitDy=0;" edge="1" parent="H7dNSjDBitGNbYNH8bIm-31" source="H7dNSjDBitGNbYNH8bIm-43" target="H7dNSjDBitGNbYNH8bIm-44">
          <mxGeometry width="50" height="50" relative="1" as="geometry">
            <mxPoint x="-265" y="1145.25" as="sourcePoint" />
            <mxPoint x="-215" y="1095.25" as="targetPoint" />
          </mxGeometry>
        </mxCell>
        <mxCell id="H7dNSjDBitGNbYNH8bIm-61" value="" style="endArrow=classic;html=1;rounded=0;exitX=0.5;exitY=1;exitDx=0;exitDy=0;" edge="1" parent="H7dNSjDBitGNbYNH8bIm-31" source="H7dNSjDBitGNbYNH8bIm-44" target="H7dNSjDBitGNbYNH8bIm-58">
          <mxGeometry width="50" height="50" relative="1" as="geometry">
            <mxPoint x="-195" y="1095.25" as="sourcePoint" />
            <mxPoint x="-145" y="1045.25" as="targetPoint" />
          </mxGeometry>
        </mxCell>
        <mxCell id="H7dNSjDBitGNbYNH8bIm-62" value="" style="endArrow=classic;html=1;rounded=0;exitX=0.5;exitY=1;exitDx=0;exitDy=0;entryX=0.5;entryY=0;entryDx=0;entryDy=0;" edge="1" parent="H7dNSjDBitGNbYNH8bIm-31" source="H7dNSjDBitGNbYNH8bIm-58" target="H7dNSjDBitGNbYNH8bIm-56">
          <mxGeometry width="50" height="50" relative="1" as="geometry">
            <mxPoint x="-245" y="1105.25" as="sourcePoint" />
            <mxPoint x="-195" y="1055.25" as="targetPoint" />
          </mxGeometry>
        </mxCell>
        <mxCell id="H7dNSjDBitGNbYNH8bIm-63" value="" style="endArrow=classic;html=1;rounded=0;exitX=0.5;exitY=1;exitDx=0;exitDy=0;entryX=0.5;entryY=0;entryDx=0;entryDy=0;" edge="1" parent="H7dNSjDBitGNbYNH8bIm-31" source="H7dNSjDBitGNbYNH8bIm-56" target="H7dNSjDBitGNbYNH8bIm-54">
          <mxGeometry width="50" height="50" relative="1" as="geometry">
            <mxPoint x="-145" y="1115.25" as="sourcePoint" />
            <mxPoint x="-95" y="1065.25" as="targetPoint" />
          </mxGeometry>
        </mxCell>
        <mxCell id="H7dNSjDBitGNbYNH8bIm-64" style="edgeStyle=orthogonalEdgeStyle;rounded=0;orthogonalLoop=1;jettySize=auto;html=1;exitX=1;exitY=0.5;exitDx=0;exitDy=0;entryX=0;entryY=0.5;entryDx=0;entryDy=0;" edge="1" parent="H7dNSjDBitGNbYNH8bIm-31" source="H7dNSjDBitGNbYNH8bIm-58" target="H7dNSjDBitGNbYNH8bIm-92">
          <mxGeometry relative="1" as="geometry" />
        </mxCell>
        <mxCell id="H7dNSjDBitGNbYNH8bIm-65" value="" style="endArrow=classic;html=1;rounded=0;exitX=0.5;exitY=1;exitDx=0;exitDy=0;entryX=0.5;entryY=0;entryDx=0;entryDy=0;" edge="1" parent="H7dNSjDBitGNbYNH8bIm-31" source="H7dNSjDBitGNbYNH8bIm-54" target="H7dNSjDBitGNbYNH8bIm-53">
          <mxGeometry width="50" height="50" relative="1" as="geometry">
            <mxPoint x="-205" y="1175.25" as="sourcePoint" />
            <mxPoint x="-155" y="1125.25" as="targetPoint" />
          </mxGeometry>
        </mxCell>
        <mxCell id="H7dNSjDBitGNbYNH8bIm-66" style="edgeStyle=orthogonalEdgeStyle;rounded=0;orthogonalLoop=1;jettySize=auto;html=1;exitX=1;exitY=0.5;exitDx=0;exitDy=0;entryX=0;entryY=0.5;entryDx=0;entryDy=0;" edge="1" parent="H7dNSjDBitGNbYNH8bIm-31" source="H7dNSjDBitGNbYNH8bIm-56" target="H7dNSjDBitGNbYNH8bIm-94">
          <mxGeometry relative="1" as="geometry" />
        </mxCell>
        <mxCell id="H7dNSjDBitGNbYNH8bIm-67" value="" style="endArrow=classic;html=1;rounded=0;exitX=1;exitY=0.5;exitDx=0;exitDy=0;entryX=0;entryY=0.5;entryDx=0;entryDy=0;" edge="1" parent="H7dNSjDBitGNbYNH8bIm-31" source="H7dNSjDBitGNbYNH8bIm-40" target="H7dNSjDBitGNbYNH8bIm-78">
          <mxGeometry width="50" height="50" relative="1" as="geometry">
            <mxPoint x="-155" y="1155.25" as="sourcePoint" />
            <mxPoint x="-105" y="1105.25" as="targetPoint" />
          </mxGeometry>
        </mxCell>
        <mxCell id="H7dNSjDBitGNbYNH8bIm-68" style="edgeStyle=orthogonalEdgeStyle;rounded=0;orthogonalLoop=1;jettySize=auto;html=1;exitX=1;exitY=0.5;exitDx=0;exitDy=0;entryX=0;entryY=0.5;entryDx=0;entryDy=0;" edge="1" parent="H7dNSjDBitGNbYNH8bIm-31" source="H7dNSjDBitGNbYNH8bIm-54" target="H7dNSjDBitGNbYNH8bIm-96">
          <mxGeometry relative="1" as="geometry" />
        </mxCell>
        <mxCell id="H7dNSjDBitGNbYNH8bIm-69" value="" style="endArrow=classic;html=1;rounded=0;exitX=1;exitY=0.5;exitDx=0;exitDy=0;entryX=0;entryY=0.5;entryDx=0;entryDy=0;" edge="1" parent="H7dNSjDBitGNbYNH8bIm-31" source="H7dNSjDBitGNbYNH8bIm-42" target="H7dNSjDBitGNbYNH8bIm-82">
          <mxGeometry width="50" height="50" relative="1" as="geometry">
            <mxPoint x="345" y="765.25" as="sourcePoint" />
            <mxPoint x="395" y="715.25" as="targetPoint" />
          </mxGeometry>
        </mxCell>
        <mxCell id="H7dNSjDBitGNbYNH8bIm-70" style="edgeStyle=orthogonalEdgeStyle;rounded=0;orthogonalLoop=1;jettySize=auto;html=1;exitX=1;exitY=0.5;exitDx=0;exitDy=0;entryX=0;entryY=0.5;entryDx=0;entryDy=0;" edge="1" parent="H7dNSjDBitGNbYNH8bIm-31" source="H7dNSjDBitGNbYNH8bIm-53" target="H7dNSjDBitGNbYNH8bIm-98">
          <mxGeometry relative="1" as="geometry" />
        </mxCell>
        <mxCell id="H7dNSjDBitGNbYNH8bIm-71" value="" style="endArrow=classic;html=1;rounded=0;exitX=1;exitY=0.5;exitDx=0;exitDy=0;entryX=0;entryY=0.5;entryDx=0;entryDy=0;" edge="1" parent="H7dNSjDBitGNbYNH8bIm-31" source="H7dNSjDBitGNbYNH8bIm-41" target="H7dNSjDBitGNbYNH8bIm-80">
          <mxGeometry width="50" height="50" relative="1" as="geometry">
            <mxPoint x="355" y="775.25" as="sourcePoint" />
            <mxPoint x="405" y="725.25" as="targetPoint" />
          </mxGeometry>
        </mxCell>
        <mxCell id="H7dNSjDBitGNbYNH8bIm-72" style="edgeStyle=orthogonalEdgeStyle;rounded=0;orthogonalLoop=1;jettySize=auto;html=1;exitX=1;exitY=0.5;exitDx=0;exitDy=0;entryX=0.5;entryY=0;entryDx=0;entryDy=0;" edge="1" parent="H7dNSjDBitGNbYNH8bIm-31" source="H7dNSjDBitGNbYNH8bIm-73" target="H7dNSjDBitGNbYNH8bIm-34">
          <mxGeometry relative="1" as="geometry" />
        </mxCell>
        <mxCell id="H7dNSjDBitGNbYNH8bIm-73" value="cout cards[1]&lt;br&gt;break" style="shape=parallelogram;perimeter=parallelogramPerimeter;whiteSpace=wrap;html=1;fixedSize=1;rounded=0;container=0;" vertex="1" parent="H7dNSjDBitGNbYNH8bIm-31">
          <mxGeometry x="184" y="175.25" width="146" height="60" as="geometry" />
        </mxCell>
        <mxCell id="H7dNSjDBitGNbYNH8bIm-74" style="edgeStyle=orthogonalEdgeStyle;rounded=0;orthogonalLoop=1;jettySize=auto;html=1;exitX=1;exitY=0.5;exitDx=0;exitDy=0;entryX=0;entryY=0.5;entryDx=0;entryDy=0;" edge="1" parent="H7dNSjDBitGNbYNH8bIm-31" source="H7dNSjDBitGNbYNH8bIm-37" target="H7dNSjDBitGNbYNH8bIm-73">
          <mxGeometry relative="1" as="geometry" />
        </mxCell>
        <mxCell id="H7dNSjDBitGNbYNH8bIm-75" style="edgeStyle=orthogonalEdgeStyle;rounded=0;orthogonalLoop=1;jettySize=auto;html=1;exitX=1;exitY=0.5;exitDx=0;exitDy=0;" edge="1" parent="H7dNSjDBitGNbYNH8bIm-31" source="H7dNSjDBitGNbYNH8bIm-76">
          <mxGeometry relative="1" as="geometry">
            <mxPoint x="410" y="411" as="targetPoint" />
          </mxGeometry>
        </mxCell>
        <mxCell id="H7dNSjDBitGNbYNH8bIm-76" value="cout cards[3]&lt;br&gt;break" style="shape=parallelogram;perimeter=parallelogramPerimeter;whiteSpace=wrap;html=1;fixedSize=1;rounded=0;container=0;" vertex="1" parent="H7dNSjDBitGNbYNH8bIm-31">
          <mxGeometry x="184" y="381.25" width="146" height="60" as="geometry" />
        </mxCell>
        <mxCell id="H7dNSjDBitGNbYNH8bIm-77" style="edgeStyle=orthogonalEdgeStyle;rounded=0;orthogonalLoop=1;jettySize=auto;html=1;exitX=1;exitY=0.5;exitDx=0;exitDy=0;" edge="1" parent="H7dNSjDBitGNbYNH8bIm-31" source="H7dNSjDBitGNbYNH8bIm-78">
          <mxGeometry relative="1" as="geometry">
            <mxPoint x="410" y="514.2" as="targetPoint" />
          </mxGeometry>
        </mxCell>
        <mxCell id="H7dNSjDBitGNbYNH8bIm-78" value="cout cards[4]&lt;br&gt;break" style="shape=parallelogram;perimeter=parallelogramPerimeter;whiteSpace=wrap;html=1;fixedSize=1;rounded=0;container=0;" vertex="1" parent="H7dNSjDBitGNbYNH8bIm-31">
          <mxGeometry x="184" y="484.25" width="146" height="60" as="geometry" />
        </mxCell>
        <mxCell id="H7dNSjDBitGNbYNH8bIm-79" style="edgeStyle=orthogonalEdgeStyle;rounded=0;orthogonalLoop=1;jettySize=auto;html=1;exitX=1;exitY=0.5;exitDx=0;exitDy=0;" edge="1" parent="H7dNSjDBitGNbYNH8bIm-31" source="H7dNSjDBitGNbYNH8bIm-80">
          <mxGeometry relative="1" as="geometry">
            <mxPoint x="410" y="617.4000000000001" as="targetPoint" />
          </mxGeometry>
        </mxCell>
        <mxCell id="H7dNSjDBitGNbYNH8bIm-80" value="cout cards[5]&lt;br&gt;break" style="shape=parallelogram;perimeter=parallelogramPerimeter;whiteSpace=wrap;html=1;fixedSize=1;rounded=0;container=0;" vertex="1" parent="H7dNSjDBitGNbYNH8bIm-31">
          <mxGeometry x="184" y="587.25" width="146" height="60" as="geometry" />
        </mxCell>
        <mxCell id="H7dNSjDBitGNbYNH8bIm-81" style="edgeStyle=orthogonalEdgeStyle;rounded=0;orthogonalLoop=1;jettySize=auto;html=1;exitX=1;exitY=0.5;exitDx=0;exitDy=0;" edge="1" parent="H7dNSjDBitGNbYNH8bIm-31" source="H7dNSjDBitGNbYNH8bIm-82">
          <mxGeometry relative="1" as="geometry">
            <mxPoint x="410" y="720.5999999999999" as="targetPoint" />
          </mxGeometry>
        </mxCell>
        <mxCell id="H7dNSjDBitGNbYNH8bIm-82" value="cout cards[6]&lt;br&gt;break" style="shape=parallelogram;perimeter=parallelogramPerimeter;whiteSpace=wrap;html=1;fixedSize=1;rounded=0;container=0;" vertex="1" parent="H7dNSjDBitGNbYNH8bIm-31">
          <mxGeometry x="184" y="690.25" width="146" height="60" as="geometry" />
        </mxCell>
        <mxCell id="H7dNSjDBitGNbYNH8bIm-83" style="edgeStyle=orthogonalEdgeStyle;rounded=0;orthogonalLoop=1;jettySize=auto;html=1;exitX=1;exitY=0.5;exitDx=0;exitDy=0;" edge="1" parent="H7dNSjDBitGNbYNH8bIm-31" source="H7dNSjDBitGNbYNH8bIm-84">
          <mxGeometry relative="1" as="geometry">
            <mxPoint x="410" y="823" as="targetPoint" />
          </mxGeometry>
        </mxCell>
        <mxCell id="H7dNSjDBitGNbYNH8bIm-84" value="cout cards[7]&lt;br&gt;break" style="shape=parallelogram;perimeter=parallelogramPerimeter;whiteSpace=wrap;html=1;fixedSize=1;rounded=0;container=0;" vertex="1" parent="H7dNSjDBitGNbYNH8bIm-31">
          <mxGeometry x="184" y="793.25" width="146" height="60" as="geometry" />
        </mxCell>
        <mxCell id="H7dNSjDBitGNbYNH8bIm-85" style="edgeStyle=orthogonalEdgeStyle;rounded=0;orthogonalLoop=1;jettySize=auto;html=1;exitX=1;exitY=0.5;exitDx=0;exitDy=0;entryX=0;entryY=0.5;entryDx=0;entryDy=0;" edge="1" parent="H7dNSjDBitGNbYNH8bIm-31" source="H7dNSjDBitGNbYNH8bIm-86" target="H7dNSjDBitGNbYNH8bIm-34">
          <mxGeometry relative="1" as="geometry" />
        </mxCell>
        <mxCell id="H7dNSjDBitGNbYNH8bIm-86" value="Default: cout cards[12]&lt;br&gt;break" style="shape=parallelogram;perimeter=parallelogramPerimeter;whiteSpace=wrap;html=1;fixedSize=1;rounded=0;container=0;" vertex="1" parent="H7dNSjDBitGNbYNH8bIm-31">
          <mxGeometry x="184" y="1411.25" width="146" height="60" as="geometry" />
        </mxCell>
        <mxCell id="H7dNSjDBitGNbYNH8bIm-87" style="edgeStyle=orthogonalEdgeStyle;rounded=0;orthogonalLoop=1;jettySize=auto;html=1;exitX=1;exitY=0.5;exitDx=0;exitDy=0;" edge="1" parent="H7dNSjDBitGNbYNH8bIm-31" source="H7dNSjDBitGNbYNH8bIm-88">
          <mxGeometry relative="1" as="geometry">
            <mxPoint x="410" y="308.6" as="targetPoint" />
          </mxGeometry>
        </mxCell>
        <mxCell id="H7dNSjDBitGNbYNH8bIm-88" value="cout cards[2]&lt;br&gt;break" style="shape=parallelogram;perimeter=parallelogramPerimeter;whiteSpace=wrap;html=1;fixedSize=1;rounded=0;container=0;" vertex="1" parent="H7dNSjDBitGNbYNH8bIm-31">
          <mxGeometry x="184" y="278.25" width="146" height="60" as="geometry" />
        </mxCell>
        <mxCell id="H7dNSjDBitGNbYNH8bIm-89" style="edgeStyle=orthogonalEdgeStyle;rounded=0;orthogonalLoop=1;jettySize=auto;html=1;exitX=1;exitY=0.5;exitDx=0;exitDy=0;" edge="1" parent="H7dNSjDBitGNbYNH8bIm-31" source="H7dNSjDBitGNbYNH8bIm-90">
          <mxGeometry relative="1" as="geometry">
            <mxPoint x="410" y="926.2" as="targetPoint" />
          </mxGeometry>
        </mxCell>
        <mxCell id="H7dNSjDBitGNbYNH8bIm-90" value="cout cards[8]&lt;br&gt;break" style="shape=parallelogram;perimeter=parallelogramPerimeter;whiteSpace=wrap;html=1;fixedSize=1;rounded=0;container=0;" vertex="1" parent="H7dNSjDBitGNbYNH8bIm-31">
          <mxGeometry x="184" y="896.5" width="146" height="60" as="geometry" />
        </mxCell>
        <mxCell id="H7dNSjDBitGNbYNH8bIm-91" style="edgeStyle=orthogonalEdgeStyle;rounded=0;orthogonalLoop=1;jettySize=auto;html=1;exitX=1;exitY=0.5;exitDx=0;exitDy=0;" edge="1" parent="H7dNSjDBitGNbYNH8bIm-31" source="H7dNSjDBitGNbYNH8bIm-92">
          <mxGeometry relative="1" as="geometry">
            <mxPoint x="410" y="1028.6" as="targetPoint" />
          </mxGeometry>
        </mxCell>
        <mxCell id="H7dNSjDBitGNbYNH8bIm-92" value="cout cards[9]&lt;br&gt;break" style="shape=parallelogram;perimeter=parallelogramPerimeter;whiteSpace=wrap;html=1;fixedSize=1;rounded=0;container=0;" vertex="1" parent="H7dNSjDBitGNbYNH8bIm-31">
          <mxGeometry x="184" y="998.25" width="146" height="60" as="geometry" />
        </mxCell>
        <mxCell id="H7dNSjDBitGNbYNH8bIm-93" style="edgeStyle=orthogonalEdgeStyle;rounded=0;orthogonalLoop=1;jettySize=auto;html=1;exitX=1;exitY=0.5;exitDx=0;exitDy=0;" edge="1" parent="H7dNSjDBitGNbYNH8bIm-31" source="H7dNSjDBitGNbYNH8bIm-94">
          <mxGeometry relative="1" as="geometry">
            <mxPoint x="410" y="1131" as="targetPoint" />
          </mxGeometry>
        </mxCell>
        <mxCell id="H7dNSjDBitGNbYNH8bIm-94" value="cout cards[10]&lt;br&gt;break" style="shape=parallelogram;perimeter=parallelogramPerimeter;whiteSpace=wrap;html=1;fixedSize=1;rounded=0;container=0;" vertex="1" parent="H7dNSjDBitGNbYNH8bIm-31">
          <mxGeometry x="184" y="1101.25" width="146" height="60" as="geometry" />
        </mxCell>
        <mxCell id="H7dNSjDBitGNbYNH8bIm-95" style="edgeStyle=orthogonalEdgeStyle;rounded=0;orthogonalLoop=1;jettySize=auto;html=1;exitX=1;exitY=0.5;exitDx=0;exitDy=0;" edge="1" parent="H7dNSjDBitGNbYNH8bIm-31" source="H7dNSjDBitGNbYNH8bIm-96">
          <mxGeometry relative="1" as="geometry">
            <mxPoint x="410" y="1234.2" as="targetPoint" />
          </mxGeometry>
        </mxCell>
        <mxCell id="H7dNSjDBitGNbYNH8bIm-96" value="cout cards[11]&lt;br&gt;break" style="shape=parallelogram;perimeter=parallelogramPerimeter;whiteSpace=wrap;html=1;fixedSize=1;rounded=0;container=0;" vertex="1" parent="H7dNSjDBitGNbYNH8bIm-31">
          <mxGeometry x="184" y="1204.25" width="146" height="60" as="geometry" />
        </mxCell>
        <mxCell id="H7dNSjDBitGNbYNH8bIm-97" style="edgeStyle=orthogonalEdgeStyle;rounded=0;orthogonalLoop=1;jettySize=auto;html=1;exitX=1;exitY=0.5;exitDx=0;exitDy=0;" edge="1" parent="H7dNSjDBitGNbYNH8bIm-31" source="H7dNSjDBitGNbYNH8bIm-98">
          <mxGeometry relative="1" as="geometry">
            <mxPoint x="410" y="1337.4" as="targetPoint" />
          </mxGeometry>
        </mxCell>
        <mxCell id="H7dNSjDBitGNbYNH8bIm-98" value="cout cards[12]&lt;br&gt;break" style="shape=parallelogram;perimeter=parallelogramPerimeter;whiteSpace=wrap;html=1;fixedSize=1;rounded=0;container=0;" vertex="1" parent="H7dNSjDBitGNbYNH8bIm-31">
          <mxGeometry x="184" y="1307.5" width="146" height="60" as="geometry" />
        </mxCell>
        <mxCell id="H7dNSjDBitGNbYNH8bIm-99" style="edgeStyle=orthogonalEdgeStyle;rounded=0;orthogonalLoop=1;jettySize=auto;html=1;exitX=0.5;exitY=1;exitDx=0;exitDy=0;entryX=0;entryY=0.5;entryDx=0;entryDy=0;" edge="1" parent="H7dNSjDBitGNbYNH8bIm-31" source="H7dNSjDBitGNbYNH8bIm-53" target="H7dNSjDBitGNbYNH8bIm-86">
          <mxGeometry relative="1" as="geometry">
            <Array as="points">
              <mxPoint x="75" y="1442" />
              <mxPoint x="194" y="1442" />
            </Array>
          </mxGeometry>
        </mxCell>
        <mxCell id="H7dNSjDBitGNbYNH8bIm-100" value="No" style="text;html=1;strokeColor=none;fillColor=none;align=center;verticalAlign=middle;whiteSpace=wrap;rounded=0;container=0;" vertex="1" parent="H7dNSjDBitGNbYNH8bIm-31">
          <mxGeometry x="24" y="242.25" width="60" height="30" as="geometry" />
        </mxCell>
        <mxCell id="H7dNSjDBitGNbYNH8bIm-101" value="No" style="text;html=1;strokeColor=none;fillColor=none;align=center;verticalAlign=middle;whiteSpace=wrap;rounded=0;container=0;" vertex="1" parent="H7dNSjDBitGNbYNH8bIm-31">
          <mxGeometry x="24" y="1271.25" width="60" height="30" as="geometry" />
        </mxCell>
        <mxCell id="H7dNSjDBitGNbYNH8bIm-102" value="No" style="text;html=1;strokeColor=none;fillColor=none;align=center;verticalAlign=middle;whiteSpace=wrap;rounded=0;container=0;" vertex="1" parent="H7dNSjDBitGNbYNH8bIm-31">
          <mxGeometry x="24" y="451.25" width="60" height="30" as="geometry" />
        </mxCell>
        <mxCell id="H7dNSjDBitGNbYNH8bIm-103" value="No" style="text;html=1;strokeColor=none;fillColor=none;align=center;verticalAlign=middle;whiteSpace=wrap;rounded=0;container=0;" vertex="1" parent="H7dNSjDBitGNbYNH8bIm-31">
          <mxGeometry x="24" y="547.25" width="60" height="30" as="geometry" />
        </mxCell>
        <mxCell id="H7dNSjDBitGNbYNH8bIm-104" value="No" style="text;html=1;strokeColor=none;fillColor=none;align=center;verticalAlign=middle;whiteSpace=wrap;rounded=0;container=0;" vertex="1" parent="H7dNSjDBitGNbYNH8bIm-31">
          <mxGeometry x="24" y="650.25" width="60" height="30" as="geometry" />
        </mxCell>
        <mxCell id="H7dNSjDBitGNbYNH8bIm-105" value="No" style="text;html=1;strokeColor=none;fillColor=none;align=center;verticalAlign=middle;whiteSpace=wrap;rounded=0;container=0;" vertex="1" parent="H7dNSjDBitGNbYNH8bIm-31">
          <mxGeometry x="24" y="753.25" width="60" height="30" as="geometry" />
        </mxCell>
        <mxCell id="H7dNSjDBitGNbYNH8bIm-106" value="No" style="text;html=1;strokeColor=none;fillColor=none;align=center;verticalAlign=middle;whiteSpace=wrap;rounded=0;container=0;" vertex="1" parent="H7dNSjDBitGNbYNH8bIm-31">
          <mxGeometry x="24" y="856.5" width="60" height="30" as="geometry" />
        </mxCell>
        <mxCell id="H7dNSjDBitGNbYNH8bIm-107" value="No" style="text;html=1;strokeColor=none;fillColor=none;align=center;verticalAlign=middle;whiteSpace=wrap;rounded=0;container=0;" vertex="1" parent="H7dNSjDBitGNbYNH8bIm-31">
          <mxGeometry x="24" y="958.25" width="60" height="30" as="geometry" />
        </mxCell>
        <mxCell id="H7dNSjDBitGNbYNH8bIm-108" value="No" style="text;html=1;strokeColor=none;fillColor=none;align=center;verticalAlign=middle;whiteSpace=wrap;rounded=0;container=0;" vertex="1" parent="H7dNSjDBitGNbYNH8bIm-31">
          <mxGeometry x="24" y="1061.25" width="60" height="30" as="geometry" />
        </mxCell>
        <mxCell id="H7dNSjDBitGNbYNH8bIm-109" value="No" style="text;html=1;strokeColor=none;fillColor=none;align=center;verticalAlign=middle;whiteSpace=wrap;rounded=0;container=0;" vertex="1" parent="H7dNSjDBitGNbYNH8bIm-31">
          <mxGeometry x="24" y="1164.25" width="60" height="30" as="geometry" />
        </mxCell>
        <mxCell id="H7dNSjDBitGNbYNH8bIm-110" value="No" style="text;html=1;strokeColor=none;fillColor=none;align=center;verticalAlign=middle;whiteSpace=wrap;rounded=0;container=0;" vertex="1" parent="H7dNSjDBitGNbYNH8bIm-31">
          <mxGeometry x="24" y="1377.5" width="60" height="30" as="geometry" />
        </mxCell>
        <mxCell id="H7dNSjDBitGNbYNH8bIm-111" value="Yes" style="text;html=1;strokeColor=none;fillColor=none;align=center;verticalAlign=middle;whiteSpace=wrap;rounded=0;container=0;" vertex="1" parent="H7dNSjDBitGNbYNH8bIm-31">
          <mxGeometry x="135" y="175.25" width="60" height="30" as="geometry" />
        </mxCell>
        <mxCell id="H7dNSjDBitGNbYNH8bIm-112" value="Yes" style="text;html=1;strokeColor=none;fillColor=none;align=center;verticalAlign=middle;whiteSpace=wrap;rounded=0;container=0;" vertex="1" parent="H7dNSjDBitGNbYNH8bIm-31">
          <mxGeometry x="135" y="278.25" width="60" height="30" as="geometry" />
        </mxCell>
        <mxCell id="H7dNSjDBitGNbYNH8bIm-113" value="Yes" style="text;html=1;strokeColor=none;fillColor=none;align=center;verticalAlign=middle;whiteSpace=wrap;rounded=0;container=0;" vertex="1" parent="H7dNSjDBitGNbYNH8bIm-31">
          <mxGeometry x="135" y="381.25" width="60" height="30" as="geometry" />
        </mxCell>
        <mxCell id="H7dNSjDBitGNbYNH8bIm-114" value="Yes" style="text;html=1;strokeColor=none;fillColor=none;align=center;verticalAlign=middle;whiteSpace=wrap;rounded=0;container=0;" vertex="1" parent="H7dNSjDBitGNbYNH8bIm-31">
          <mxGeometry x="135" y="484.25" width="60" height="30" as="geometry" />
        </mxCell>
        <mxCell id="H7dNSjDBitGNbYNH8bIm-115" value="Yes" style="text;html=1;strokeColor=none;fillColor=none;align=center;verticalAlign=middle;whiteSpace=wrap;rounded=0;container=0;" vertex="1" parent="H7dNSjDBitGNbYNH8bIm-31">
          <mxGeometry x="135" y="587.25" width="60" height="30" as="geometry" />
        </mxCell>
        <mxCell id="H7dNSjDBitGNbYNH8bIm-116" value="Yes" style="text;html=1;strokeColor=none;fillColor=none;align=center;verticalAlign=middle;whiteSpace=wrap;rounded=0;container=0;" vertex="1" parent="H7dNSjDBitGNbYNH8bIm-31">
          <mxGeometry x="135" y="690.25" width="60" height="30" as="geometry" />
        </mxCell>
        <mxCell id="H7dNSjDBitGNbYNH8bIm-117" value="Yes" style="text;html=1;strokeColor=none;fillColor=none;align=center;verticalAlign=middle;whiteSpace=wrap;rounded=0;container=0;" vertex="1" parent="H7dNSjDBitGNbYNH8bIm-31">
          <mxGeometry x="135" y="793.25" width="60" height="30" as="geometry" />
        </mxCell>
        <mxCell id="H7dNSjDBitGNbYNH8bIm-118" value="Yes" style="text;html=1;strokeColor=none;fillColor=none;align=center;verticalAlign=middle;whiteSpace=wrap;rounded=0;container=0;" vertex="1" parent="H7dNSjDBitGNbYNH8bIm-31">
          <mxGeometry x="135" y="896.5" width="60" height="30" as="geometry" />
        </mxCell>
        <mxCell id="H7dNSjDBitGNbYNH8bIm-119" value="Yes" style="text;html=1;strokeColor=none;fillColor=none;align=center;verticalAlign=middle;whiteSpace=wrap;rounded=0;container=0;" vertex="1" parent="H7dNSjDBitGNbYNH8bIm-31">
          <mxGeometry x="135" y="998.25" width="60" height="30" as="geometry" />
        </mxCell>
        <mxCell id="H7dNSjDBitGNbYNH8bIm-120" value="Yes" style="text;html=1;strokeColor=none;fillColor=none;align=center;verticalAlign=middle;whiteSpace=wrap;rounded=0;container=0;" vertex="1" parent="H7dNSjDBitGNbYNH8bIm-31">
          <mxGeometry x="135" y="1101.25" width="60" height="30" as="geometry" />
        </mxCell>
        <mxCell id="H7dNSjDBitGNbYNH8bIm-121" value="Yes" style="text;html=1;strokeColor=none;fillColor=none;align=center;verticalAlign=middle;whiteSpace=wrap;rounded=0;container=0;" vertex="1" parent="H7dNSjDBitGNbYNH8bIm-31">
          <mxGeometry x="135" y="1204.25" width="60" height="30" as="geometry" />
        </mxCell>
        <mxCell id="H7dNSjDBitGNbYNH8bIm-122" value="Yes" style="text;html=1;strokeColor=none;fillColor=none;align=center;verticalAlign=middle;whiteSpace=wrap;rounded=0;container=0;" vertex="1" parent="H7dNSjDBitGNbYNH8bIm-31">
          <mxGeometry x="135" y="1307.5" width="60" height="30" as="geometry" />
        </mxCell>
        <mxCell id="H7dNSjDBitGNbYNH8bIm-123" value="" style="group" vertex="1" connectable="0" parent="H7dNSjDBitGNbYNH8bIm-304">
          <mxGeometry width="536.5" height="718.5" as="geometry" />
        </mxCell>
        <mxCell id="H7dNSjDBitGNbYNH8bIm-124" value="&lt;p style=&quot;line-height: 90%;&quot;&gt;if (count)&lt;br&gt;&lt;/p&gt;" style="rhombus;whiteSpace=wrap;html=1;" vertex="1" parent="H7dNSjDBitGNbYNH8bIm-123">
          <mxGeometry x="172.5" y="64" width="150" height="80" as="geometry" />
        </mxCell>
        <mxCell id="H7dNSjDBitGNbYNH8bIm-125" value="&lt;font style=&quot;font-size: 14px;&quot;&gt;if hand[x] is 0&lt;/font&gt;&lt;br&gt;this section is repeated &lt;br&gt;for each item in the array &lt;br&gt;one if statement per X &lt;br&gt;from 0 - 12" style="rhombus;whiteSpace=wrap;html=1;" vertex="1" parent="H7dNSjDBitGNbYNH8bIm-123">
          <mxGeometry x="137.5" y="165.5" width="220" height="117" as="geometry" />
        </mxCell>
        <mxCell id="H7dNSjDBitGNbYNH8bIm-126" value="Start Print" style="ellipse;whiteSpace=wrap;html=1;" vertex="1" parent="H7dNSjDBitGNbYNH8bIm-123">
          <mxGeometry x="187.5" width="120" height="40" as="geometry" />
        </mxCell>
        <mxCell id="H7dNSjDBitGNbYNH8bIm-127" value="Yes" style="text;html=1;strokeColor=none;fillColor=none;align=center;verticalAlign=middle;whiteSpace=wrap;rounded=0;" vertex="1" parent="H7dNSjDBitGNbYNH8bIm-123">
          <mxGeometry x="341.5" y="195" width="60" height="30" as="geometry" />
        </mxCell>
        <mxCell id="H7dNSjDBitGNbYNH8bIm-128" value="No" style="text;html=1;strokeColor=none;fillColor=none;align=center;verticalAlign=middle;whiteSpace=wrap;rounded=0;" vertex="1" parent="H7dNSjDBitGNbYNH8bIm-123">
          <mxGeometry x="234" y="282.5" width="60" height="30" as="geometry" />
        </mxCell>
        <mxCell id="H7dNSjDBitGNbYNH8bIm-129" value="output string with&lt;br style=&quot;border-color: var(--border-color);&quot;&gt;the number &amp;amp; a tab" style="shape=parallelogram;perimeter=parallelogramPerimeter;whiteSpace=wrap;html=1;fixedSize=1;" vertex="1" parent="H7dNSjDBitGNbYNH8bIm-123">
          <mxGeometry x="376.5" y="194" width="155" height="60" as="geometry" />
        </mxCell>
        <mxCell id="H7dNSjDBitGNbYNH8bIm-130" value="output empty string" style="shape=parallelogram;perimeter=parallelogramPerimeter;whiteSpace=wrap;html=1;fixedSize=1;" vertex="1" parent="H7dNSjDBitGNbYNH8bIm-123">
          <mxGeometry x="349" y="305" width="155" height="60" as="geometry" />
        </mxCell>
        <mxCell id="H7dNSjDBitGNbYNH8bIm-131" value="output endl&lt;br&gt;setw(14)&lt;br&gt;&amp;amp; tab" style="shape=parallelogram;perimeter=parallelogramPerimeter;whiteSpace=wrap;html=1;fixedSize=1;" vertex="1" parent="H7dNSjDBitGNbYNH8bIm-123">
          <mxGeometry x="170" y="390" width="155" height="60" as="geometry" />
        </mxCell>
        <mxCell id="H7dNSjDBitGNbYNH8bIm-132" value="j = 0" style="rounded=0;whiteSpace=wrap;html=1;" vertex="1" parent="H7dNSjDBitGNbYNH8bIm-123">
          <mxGeometry x="187.5" y="478.5" width="120" height="60" as="geometry" />
        </mxCell>
        <mxCell id="H7dNSjDBitGNbYNH8bIm-133" value="(loop ends)&lt;br&gt;increment j" style="rounded=0;whiteSpace=wrap;html=1;" vertex="1" parent="H7dNSjDBitGNbYNH8bIm-123">
          <mxGeometry x="347" y="571" width="120" height="60" as="geometry" />
        </mxCell>
        <mxCell id="H7dNSjDBitGNbYNH8bIm-134" value="j &amp;lt; 13?" style="rhombus;whiteSpace=wrap;html=1;" vertex="1" parent="H7dNSjDBitGNbYNH8bIm-123">
          <mxGeometry x="172.5" y="561" width="150" height="80" as="geometry" />
        </mxCell>
        <mxCell id="H7dNSjDBitGNbYNH8bIm-135" value="output face value [ j ]" style="shape=parallelogram;perimeter=parallelogramPerimeter;whiteSpace=wrap;html=1;fixedSize=1;" vertex="1" parent="H7dNSjDBitGNbYNH8bIm-123">
          <mxGeometry x="172.5" y="658.5" width="155" height="60" as="geometry" />
        </mxCell>
        <mxCell id="H7dNSjDBitGNbYNH8bIm-136" value="output endl" style="shape=parallelogram;perimeter=parallelogramPerimeter;whiteSpace=wrap;html=1;fixedSize=1;" vertex="1" parent="H7dNSjDBitGNbYNH8bIm-123">
          <mxGeometry y="571" width="155" height="60" as="geometry" />
        </mxCell>
        <mxCell id="H7dNSjDBitGNbYNH8bIm-137" value="" style="endArrow=classic;html=1;rounded=0;exitX=0.5;exitY=1;exitDx=0;exitDy=0;entryX=0.5;entryY=0;entryDx=0;entryDy=0;" edge="1" parent="H7dNSjDBitGNbYNH8bIm-123" source="H7dNSjDBitGNbYNH8bIm-132" target="H7dNSjDBitGNbYNH8bIm-134">
          <mxGeometry width="50" height="50" relative="1" as="geometry">
            <mxPoint x="546.5" y="450.5" as="sourcePoint" />
            <mxPoint x="596.5" y="400.5" as="targetPoint" />
          </mxGeometry>
        </mxCell>
        <mxCell id="H7dNSjDBitGNbYNH8bIm-138" value="" style="endArrow=classic;html=1;rounded=0;exitX=0.5;exitY=1;exitDx=0;exitDy=0;" edge="1" parent="H7dNSjDBitGNbYNH8bIm-123" source="H7dNSjDBitGNbYNH8bIm-134" target="H7dNSjDBitGNbYNH8bIm-135">
          <mxGeometry width="50" height="50" relative="1" as="geometry">
            <mxPoint x="-93.5" y="520.5" as="sourcePoint" />
            <mxPoint x="-43.5" y="470.5" as="targetPoint" />
          </mxGeometry>
        </mxCell>
        <mxCell id="H7dNSjDBitGNbYNH8bIm-139" value="" style="endArrow=classic;html=1;rounded=0;exitX=0;exitY=0.5;exitDx=0;exitDy=0;entryX=1;entryY=0.5;entryDx=0;entryDy=0;" edge="1" parent="H7dNSjDBitGNbYNH8bIm-123" source="H7dNSjDBitGNbYNH8bIm-134" target="H7dNSjDBitGNbYNH8bIm-136">
          <mxGeometry width="50" height="50" relative="1" as="geometry">
            <mxPoint x="-143.5" y="530.5" as="sourcePoint" />
            <mxPoint x="-93.5" y="480.5" as="targetPoint" />
          </mxGeometry>
        </mxCell>
        <mxCell id="H7dNSjDBitGNbYNH8bIm-140" value="" style="endArrow=classic;html=1;rounded=0;exitX=1;exitY=0.5;exitDx=0;exitDy=0;entryX=0.5;entryY=1;entryDx=0;entryDy=0;" edge="1" parent="H7dNSjDBitGNbYNH8bIm-123" source="H7dNSjDBitGNbYNH8bIm-135" target="H7dNSjDBitGNbYNH8bIm-133">
          <mxGeometry width="50" height="50" relative="1" as="geometry">
            <mxPoint x="-153.5" y="610.5" as="sourcePoint" />
            <mxPoint x="-103.5" y="560.5" as="targetPoint" />
            <Array as="points">
              <mxPoint x="407.5" y="688.5" />
            </Array>
          </mxGeometry>
        </mxCell>
        <mxCell id="H7dNSjDBitGNbYNH8bIm-141" value="" style="endArrow=classic;html=1;rounded=0;exitX=0;exitY=0.5;exitDx=0;exitDy=0;entryX=1;entryY=0.5;entryDx=0;entryDy=0;" edge="1" parent="H7dNSjDBitGNbYNH8bIm-123" source="H7dNSjDBitGNbYNH8bIm-133" target="H7dNSjDBitGNbYNH8bIm-134">
          <mxGeometry width="50" height="50" relative="1" as="geometry">
            <mxPoint x="-83.5" y="520.5" as="sourcePoint" />
            <mxPoint x="-33.5" y="470.5" as="targetPoint" />
          </mxGeometry>
        </mxCell>
        <mxCell id="H7dNSjDBitGNbYNH8bIm-142" value="" style="endArrow=classic;html=1;rounded=0;exitX=0.5;exitY=1;exitDx=0;exitDy=0;entryX=0.5;entryY=0;entryDx=0;entryDy=0;" edge="1" parent="H7dNSjDBitGNbYNH8bIm-123" source="H7dNSjDBitGNbYNH8bIm-126" target="H7dNSjDBitGNbYNH8bIm-124">
          <mxGeometry width="50" height="50" relative="1" as="geometry">
            <mxPoint x="506.5" y="400.5" as="sourcePoint" />
            <mxPoint x="556.5" y="350.5" as="targetPoint" />
          </mxGeometry>
        </mxCell>
        <mxCell id="H7dNSjDBitGNbYNH8bIm-143" value="" style="endArrow=classic;html=1;rounded=0;exitX=1;exitY=0.5;exitDx=0;exitDy=0;entryX=0;entryY=0.5;entryDx=0;entryDy=0;" edge="1" parent="H7dNSjDBitGNbYNH8bIm-123" source="H7dNSjDBitGNbYNH8bIm-125" target="H7dNSjDBitGNbYNH8bIm-129">
          <mxGeometry width="50" height="50" relative="1" as="geometry">
            <mxPoint x="576.5" y="460.5" as="sourcePoint" />
            <mxPoint x="626.5" y="410.5" as="targetPoint" />
          </mxGeometry>
        </mxCell>
        <mxCell id="H7dNSjDBitGNbYNH8bIm-144" value="" style="endArrow=classic;html=1;rounded=0;exitX=0.5;exitY=1;exitDx=0;exitDy=0;entryX=0.5;entryY=0;entryDx=0;entryDy=0;" edge="1" parent="H7dNSjDBitGNbYNH8bIm-123" source="H7dNSjDBitGNbYNH8bIm-125" target="H7dNSjDBitGNbYNH8bIm-155">
          <mxGeometry width="50" height="50" relative="1" as="geometry">
            <mxPoint x="596.5" y="410.5" as="sourcePoint" />
            <mxPoint x="204" y="284.25" as="targetPoint" />
          </mxGeometry>
        </mxCell>
        <mxCell id="H7dNSjDBitGNbYNH8bIm-145" value="" style="endArrow=classic;html=1;rounded=0;entryX=0;entryY=0.5;entryDx=0;entryDy=0;exitX=1;exitY=0.5;exitDx=0;exitDy=0;" edge="1" parent="H7dNSjDBitGNbYNH8bIm-123" source="H7dNSjDBitGNbYNH8bIm-155" target="H7dNSjDBitGNbYNH8bIm-130">
          <mxGeometry width="50" height="50" relative="1" as="geometry">
            <mxPoint x="334" y="344.25" as="sourcePoint" />
            <mxPoint x="436.5" y="460.5" as="targetPoint" />
          </mxGeometry>
        </mxCell>
        <mxCell id="H7dNSjDBitGNbYNH8bIm-146" value="" style="endArrow=classic;html=1;rounded=0;exitX=0.5;exitY=1;exitDx=0;exitDy=0;entryX=1;entryY=0.5;entryDx=0;entryDy=0;" edge="1" parent="H7dNSjDBitGNbYNH8bIm-123" source="H7dNSjDBitGNbYNH8bIm-130" target="H7dNSjDBitGNbYNH8bIm-131">
          <mxGeometry width="50" height="50" relative="1" as="geometry">
            <mxPoint x="476.5" y="470.5" as="sourcePoint" />
            <mxPoint x="526.5" y="420.5" as="targetPoint" />
            <Array as="points">
              <mxPoint x="426.5" y="420.5" />
            </Array>
          </mxGeometry>
        </mxCell>
        <mxCell id="H7dNSjDBitGNbYNH8bIm-147" value="" style="endArrow=classic;html=1;rounded=0;exitX=1;exitY=0.5;exitDx=0;exitDy=0;" edge="1" parent="H7dNSjDBitGNbYNH8bIm-123" source="H7dNSjDBitGNbYNH8bIm-129">
          <mxGeometry width="50" height="50" relative="1" as="geometry">
            <mxPoint x="556.5" y="370.5" as="sourcePoint" />
            <mxPoint x="426.5" y="420.5" as="targetPoint" />
            <Array as="points">
              <mxPoint x="536.5" y="224.5" />
              <mxPoint x="536.5" y="420.5" />
            </Array>
          </mxGeometry>
        </mxCell>
        <mxCell id="H7dNSjDBitGNbYNH8bIm-148" value="" style="endArrow=classic;html=1;rounded=0;exitX=0.5;exitY=1;exitDx=0;exitDy=0;entryX=0.5;entryY=0;entryDx=0;entryDy=0;" edge="1" parent="H7dNSjDBitGNbYNH8bIm-123" source="H7dNSjDBitGNbYNH8bIm-131" target="H7dNSjDBitGNbYNH8bIm-132">
          <mxGeometry width="50" height="50" relative="1" as="geometry">
            <mxPoint x="416.5" y="530.5" as="sourcePoint" />
            <mxPoint x="466.5" y="480.5" as="targetPoint" />
          </mxGeometry>
        </mxCell>
        <mxCell id="H7dNSjDBitGNbYNH8bIm-149" value="" style="endArrow=classic;html=1;rounded=0;exitX=0.5;exitY=1;exitDx=0;exitDy=0;entryX=0.5;entryY=0;entryDx=0;entryDy=0;" edge="1" parent="H7dNSjDBitGNbYNH8bIm-123" source="H7dNSjDBitGNbYNH8bIm-124" target="H7dNSjDBitGNbYNH8bIm-125">
          <mxGeometry width="50" height="50" relative="1" as="geometry">
            <mxPoint x="-153.5" y="250.5" as="sourcePoint" />
            <mxPoint x="-103.5" y="200.5" as="targetPoint" />
          </mxGeometry>
        </mxCell>
        <mxCell id="H7dNSjDBitGNbYNH8bIm-150" value="End Print" style="ellipse;whiteSpace=wrap;html=1;" vertex="1" parent="H7dNSjDBitGNbYNH8bIm-123">
          <mxGeometry x="17.5" y="438.5" width="120" height="40" as="geometry" />
        </mxCell>
        <mxCell id="H7dNSjDBitGNbYNH8bIm-151" value="" style="endArrow=classic;html=1;rounded=0;exitX=0.5;exitY=0;exitDx=0;exitDy=0;entryX=0.5;entryY=1;entryDx=0;entryDy=0;" edge="1" parent="H7dNSjDBitGNbYNH8bIm-123" source="H7dNSjDBitGNbYNH8bIm-136" target="H7dNSjDBitGNbYNH8bIm-150">
          <mxGeometry width="50" height="50" relative="1" as="geometry">
            <mxPoint x="-43.5" y="480.5" as="sourcePoint" />
            <mxPoint x="94" y="184.25" as="targetPoint" />
            <Array as="points" />
          </mxGeometry>
        </mxCell>
        <mxCell id="H7dNSjDBitGNbYNH8bIm-152" value="Yes" style="text;html=1;strokeColor=none;fillColor=none;align=center;verticalAlign=middle;whiteSpace=wrap;rounded=0;" vertex="1" parent="H7dNSjDBitGNbYNH8bIm-123">
          <mxGeometry x="198" y="144" width="60" height="30" as="geometry" />
        </mxCell>
        <mxCell id="H7dNSjDBitGNbYNH8bIm-153" value="No" style="text;html=1;strokeColor=none;fillColor=none;align=center;verticalAlign=middle;whiteSpace=wrap;rounded=0;" vertex="1" parent="H7dNSjDBitGNbYNH8bIm-123">
          <mxGeometry x="236.5" y="632.25" width="60" height="30" as="geometry" />
        </mxCell>
        <mxCell id="H7dNSjDBitGNbYNH8bIm-154" value="Yes" style="text;html=1;strokeColor=none;fillColor=none;align=center;verticalAlign=middle;whiteSpace=wrap;rounded=0;" vertex="1" parent="H7dNSjDBitGNbYNH8bIm-123">
          <mxGeometry x="136" y="575.25" width="60" height="30" as="geometry" />
        </mxCell>
        <mxCell id="H7dNSjDBitGNbYNH8bIm-155" value="else" style="ellipse;whiteSpace=wrap;html=1;aspect=fixed;" vertex="1" parent="H7dNSjDBitGNbYNH8bIm-123">
          <mxGeometry x="218" y="305" width="59" height="59" as="geometry" />
        </mxCell>
        <mxCell id="H7dNSjDBitGNbYNH8bIm-156" value="" style="group" vertex="1" connectable="0" parent="H7dNSjDBitGNbYNH8bIm-304">
          <mxGeometry x="641.5" y="756.5" width="450" height="679" as="geometry" />
        </mxCell>
        <mxCell id="H7dNSjDBitGNbYNH8bIm-157" value="declare indx, &lt;br&gt;declare i=0" style="rounded=0;whiteSpace=wrap;html=1;" vertex="1" parent="H7dNSjDBitGNbYNH8bIm-156">
          <mxGeometry x="167.5" y="68" width="120" height="60" as="geometry" />
        </mxCell>
        <mxCell id="H7dNSjDBitGNbYNH8bIm-158" value="int i &amp;lt; 13?" style="rhombus;whiteSpace=wrap;html=1;" vertex="1" parent="H7dNSjDBitGNbYNH8bIm-156">
          <mxGeometry x="152.5" y="150" width="150" height="80" as="geometry" />
        </mxCell>
        <mxCell id="H7dNSjDBitGNbYNH8bIm-159" value="j smaller than indx?" style="rhombus;whiteSpace=wrap;html=1;" vertex="1" parent="H7dNSjDBitGNbYNH8bIm-156">
          <mxGeometry x="152.5" y="441" width="150" height="80" as="geometry" />
        </mxCell>
        <mxCell id="H7dNSjDBitGNbYNH8bIm-160" value="set indx to i&lt;br&gt;declare j = i+1" style="rounded=0;whiteSpace=wrap;html=1;" vertex="1" parent="H7dNSjDBitGNbYNH8bIm-156">
          <mxGeometry x="167.5" y="253" width="120" height="60" as="geometry" />
        </mxCell>
        <mxCell id="H7dNSjDBitGNbYNH8bIm-161" value="swap() &lt;br&gt;hand[i] &amp;amp; hand[indx]" style="rounded=0;whiteSpace=wrap;html=1;" vertex="1" parent="H7dNSjDBitGNbYNH8bIm-156">
          <mxGeometry x="330" y="533" width="120" height="60" as="geometry" />
        </mxCell>
        <mxCell id="H7dNSjDBitGNbYNH8bIm-162" value="indx = j" style="rounded=0;whiteSpace=wrap;html=1;" vertex="1" parent="H7dNSjDBitGNbYNH8bIm-156">
          <mxGeometry x="330" y="451" width="120" height="60" as="geometry" />
        </mxCell>
        <mxCell id="H7dNSjDBitGNbYNH8bIm-163" value="Start sSort" style="ellipse;whiteSpace=wrap;html=1;" vertex="1" parent="H7dNSjDBitGNbYNH8bIm-156">
          <mxGeometry x="167.5" width="120" height="40" as="geometry" />
        </mxCell>
        <mxCell id="H7dNSjDBitGNbYNH8bIm-164" value="End sSort" style="ellipse;whiteSpace=wrap;html=1;" vertex="1" parent="H7dNSjDBitGNbYNH8bIm-156">
          <mxGeometry y="170" width="120" height="40" as="geometry" />
        </mxCell>
        <mxCell id="H7dNSjDBitGNbYNH8bIm-165" value="Yes" style="text;html=1;strokeColor=none;fillColor=none;align=center;verticalAlign=middle;whiteSpace=wrap;rounded=0;" vertex="1" parent="H7dNSjDBitGNbYNH8bIm-156">
          <mxGeometry x="107.5" y="160.5" width="60" height="30" as="geometry" />
        </mxCell>
        <mxCell id="H7dNSjDBitGNbYNH8bIm-166" value="No" style="text;html=1;strokeColor=none;fillColor=none;align=center;verticalAlign=middle;whiteSpace=wrap;rounded=0;" vertex="1" parent="H7dNSjDBitGNbYNH8bIm-156">
          <mxGeometry x="180" y="225.5" width="60" height="30" as="geometry" />
        </mxCell>
        <mxCell id="H7dNSjDBitGNbYNH8bIm-167" value="(loop ends)&lt;br&gt;increment j" style="rounded=0;whiteSpace=wrap;html=1;" vertex="1" parent="H7dNSjDBitGNbYNH8bIm-156">
          <mxGeometry x="167.5" y="619" width="120" height="60" as="geometry" />
        </mxCell>
        <mxCell id="H7dNSjDBitGNbYNH8bIm-168" value="j &amp;lt; 13?" style="rhombus;whiteSpace=wrap;html=1;" vertex="1" parent="H7dNSjDBitGNbYNH8bIm-156">
          <mxGeometry x="152.5" y="335" width="150" height="80" as="geometry" />
        </mxCell>
        <mxCell id="H7dNSjDBitGNbYNH8bIm-169" value="swap() &lt;br&gt;deck[i] &amp;amp; deck[indx]" style="rounded=0;whiteSpace=wrap;html=1;" vertex="1" parent="H7dNSjDBitGNbYNH8bIm-156">
          <mxGeometry x="330" y="619" width="120" height="60" as="geometry" />
        </mxCell>
        <mxCell id="H7dNSjDBitGNbYNH8bIm-170" value="" style="endArrow=classic;html=1;rounded=0;entryX=0;entryY=0.5;entryDx=0;entryDy=0;exitX=0;exitY=0.5;exitDx=0;exitDy=0;" edge="1" parent="H7dNSjDBitGNbYNH8bIm-156" source="H7dNSjDBitGNbYNH8bIm-167" target="H7dNSjDBitGNbYNH8bIm-168">
          <mxGeometry width="50" height="50" relative="1" as="geometry">
            <mxPoint x="160" y="776" as="sourcePoint" />
            <mxPoint x="500" y="526" as="targetPoint" />
            <Array as="points">
              <mxPoint x="120" y="649" />
              <mxPoint x="120" y="375" />
            </Array>
          </mxGeometry>
        </mxCell>
        <mxCell id="H7dNSjDBitGNbYNH8bIm-171" value="" style="endArrow=classic;html=1;rounded=0;exitX=0;exitY=0.5;exitDx=0;exitDy=0;" edge="1" parent="H7dNSjDBitGNbYNH8bIm-156" source="H7dNSjDBitGNbYNH8bIm-159">
          <mxGeometry width="50" height="50" relative="1" as="geometry">
            <mxPoint x="360" y="496" as="sourcePoint" />
            <mxPoint x="120" y="481" as="targetPoint" />
          </mxGeometry>
        </mxCell>
        <mxCell id="H7dNSjDBitGNbYNH8bIm-172" value="" style="endArrow=classic;html=1;rounded=0;exitX=0.5;exitY=1;exitDx=0;exitDy=0;entryX=0.5;entryY=0;entryDx=0;entryDy=0;" edge="1" parent="H7dNSjDBitGNbYNH8bIm-156" source="H7dNSjDBitGNbYNH8bIm-158" target="H7dNSjDBitGNbYNH8bIm-160">
          <mxGeometry width="50" height="50" relative="1" as="geometry">
            <mxPoint x="600" y="246" as="sourcePoint" />
            <mxPoint x="650" y="196" as="targetPoint" />
          </mxGeometry>
        </mxCell>
        <mxCell id="H7dNSjDBitGNbYNH8bIm-173" value="" style="endArrow=classic;html=1;rounded=0;exitX=0.5;exitY=1;exitDx=0;exitDy=0;entryX=0.5;entryY=0;entryDx=0;entryDy=0;" edge="1" parent="H7dNSjDBitGNbYNH8bIm-156" source="H7dNSjDBitGNbYNH8bIm-160" target="H7dNSjDBitGNbYNH8bIm-168">
          <mxGeometry width="50" height="50" relative="1" as="geometry">
            <mxPoint x="360" y="156" as="sourcePoint" />
            <mxPoint x="410" y="106" as="targetPoint" />
          </mxGeometry>
        </mxCell>
        <mxCell id="H7dNSjDBitGNbYNH8bIm-174" value="" style="endArrow=classic;html=1;rounded=0;exitX=1;exitY=0.5;exitDx=0;exitDy=0;entryX=0.5;entryY=1;entryDx=0;entryDy=0;" edge="1" parent="H7dNSjDBitGNbYNH8bIm-156" source="H7dNSjDBitGNbYNH8bIm-168" target="H7dNSjDBitGNbYNH8bIm-175">
          <mxGeometry width="50" height="50" relative="1" as="geometry">
            <mxPoint x="330" y="256" as="sourcePoint" />
            <mxPoint x="380" y="206" as="targetPoint" />
            <Array as="points">
              <mxPoint x="390" y="376" />
            </Array>
          </mxGeometry>
        </mxCell>
        <mxCell id="H7dNSjDBitGNbYNH8bIm-175" value="(loop ends)&lt;br&gt;increment i" style="rounded=0;whiteSpace=wrap;html=1;" vertex="1" parent="H7dNSjDBitGNbYNH8bIm-156">
          <mxGeometry x="330" y="253" width="120" height="60" as="geometry" />
        </mxCell>
        <mxCell id="H7dNSjDBitGNbYNH8bIm-176" value="" style="endArrow=classic;html=1;rounded=0;exitX=0.5;exitY=1;exitDx=0;exitDy=0;entryX=0.5;entryY=0;entryDx=0;entryDy=0;" edge="1" parent="H7dNSjDBitGNbYNH8bIm-156" source="H7dNSjDBitGNbYNH8bIm-163" target="H7dNSjDBitGNbYNH8bIm-157">
          <mxGeometry width="50" height="50" relative="1" as="geometry">
            <mxPoint x="400" y="76" as="sourcePoint" />
            <mxPoint x="450" y="26" as="targetPoint" />
          </mxGeometry>
        </mxCell>
        <mxCell id="H7dNSjDBitGNbYNH8bIm-177" value="" style="endArrow=classic;html=1;rounded=0;exitX=0.5;exitY=1;exitDx=0;exitDy=0;entryX=0.5;entryY=0;entryDx=0;entryDy=0;" edge="1" parent="H7dNSjDBitGNbYNH8bIm-156" source="H7dNSjDBitGNbYNH8bIm-157" target="H7dNSjDBitGNbYNH8bIm-158">
          <mxGeometry width="50" height="50" relative="1" as="geometry">
            <mxPoint x="320" y="136" as="sourcePoint" />
            <mxPoint x="370" y="86" as="targetPoint" />
          </mxGeometry>
        </mxCell>
        <mxCell id="H7dNSjDBitGNbYNH8bIm-178" value="" style="endArrow=classic;html=1;rounded=0;exitX=0.5;exitY=0;exitDx=0;exitDy=0;entryX=1;entryY=0.5;entryDx=0;entryDy=0;" edge="1" parent="H7dNSjDBitGNbYNH8bIm-156" source="H7dNSjDBitGNbYNH8bIm-175" target="H7dNSjDBitGNbYNH8bIm-158">
          <mxGeometry width="50" height="50" relative="1" as="geometry">
            <mxPoint x="460" y="136" as="sourcePoint" />
            <mxPoint x="510" y="86" as="targetPoint" />
            <Array as="points">
              <mxPoint x="390" y="190" />
            </Array>
          </mxGeometry>
        </mxCell>
        <mxCell id="H7dNSjDBitGNbYNH8bIm-179" value="" style="endArrow=classic;html=1;rounded=0;exitX=1;exitY=0.5;exitDx=0;exitDy=0;entryX=0;entryY=0.5;entryDx=0;entryDy=0;" edge="1" parent="H7dNSjDBitGNbYNH8bIm-156" source="H7dNSjDBitGNbYNH8bIm-159" target="H7dNSjDBitGNbYNH8bIm-162">
          <mxGeometry width="50" height="50" relative="1" as="geometry">
            <mxPoint x="480" y="486" as="sourcePoint" />
            <mxPoint x="530" y="436" as="targetPoint" />
          </mxGeometry>
        </mxCell>
        <mxCell id="H7dNSjDBitGNbYNH8bIm-180" value="" style="endArrow=classic;html=1;rounded=0;exitX=0.5;exitY=1;exitDx=0;exitDy=0;" edge="1" parent="H7dNSjDBitGNbYNH8bIm-156" source="H7dNSjDBitGNbYNH8bIm-162" target="H7dNSjDBitGNbYNH8bIm-161">
          <mxGeometry width="50" height="50" relative="1" as="geometry">
            <mxPoint x="530" y="516" as="sourcePoint" />
            <mxPoint x="580" y="466" as="targetPoint" />
          </mxGeometry>
        </mxCell>
        <mxCell id="H7dNSjDBitGNbYNH8bIm-181" value="" style="endArrow=classic;html=1;rounded=0;exitX=0.5;exitY=1;exitDx=0;exitDy=0;entryX=0.5;entryY=0;entryDx=0;entryDy=0;" edge="1" parent="H7dNSjDBitGNbYNH8bIm-156" source="H7dNSjDBitGNbYNH8bIm-161" target="H7dNSjDBitGNbYNH8bIm-169">
          <mxGeometry width="50" height="50" relative="1" as="geometry">
            <mxPoint x="310" y="676" as="sourcePoint" />
            <mxPoint x="360" y="626" as="targetPoint" />
          </mxGeometry>
        </mxCell>
        <mxCell id="H7dNSjDBitGNbYNH8bIm-182" value="" style="endArrow=classic;html=1;rounded=0;entryX=1;entryY=0.5;entryDx=0;entryDy=0;exitX=0;exitY=0.5;exitDx=0;exitDy=0;" edge="1" parent="H7dNSjDBitGNbYNH8bIm-156" source="H7dNSjDBitGNbYNH8bIm-169" target="H7dNSjDBitGNbYNH8bIm-167">
          <mxGeometry width="50" height="50" relative="1" as="geometry">
            <mxPoint y="666" as="sourcePoint" />
            <mxPoint x="50" y="616" as="targetPoint" />
          </mxGeometry>
        </mxCell>
        <mxCell id="H7dNSjDBitGNbYNH8bIm-183" value="" style="endArrow=classic;html=1;rounded=0;exitX=0.5;exitY=1;exitDx=0;exitDy=0;entryX=0.5;entryY=0;entryDx=0;entryDy=0;" edge="1" parent="H7dNSjDBitGNbYNH8bIm-156" source="H7dNSjDBitGNbYNH8bIm-168" target="H7dNSjDBitGNbYNH8bIm-159">
          <mxGeometry width="50" height="50" relative="1" as="geometry">
            <mxPoint x="-40" y="526" as="sourcePoint" />
            <mxPoint x="10" y="476" as="targetPoint" />
          </mxGeometry>
        </mxCell>
        <mxCell id="H7dNSjDBitGNbYNH8bIm-184" value="Yes" style="text;html=1;strokeColor=none;fillColor=none;align=center;verticalAlign=middle;whiteSpace=wrap;rounded=0;" vertex="1" parent="H7dNSjDBitGNbYNH8bIm-156">
          <mxGeometry x="287.5" y="346" width="60" height="30" as="geometry" />
        </mxCell>
        <mxCell id="H7dNSjDBitGNbYNH8bIm-185" value="No" style="text;html=1;strokeColor=none;fillColor=none;align=center;verticalAlign=middle;whiteSpace=wrap;rounded=0;" vertex="1" parent="H7dNSjDBitGNbYNH8bIm-156">
          <mxGeometry x="227.5" y="411" width="60" height="30" as="geometry" />
        </mxCell>
        <mxCell id="H7dNSjDBitGNbYNH8bIm-186" value="Yes" style="text;html=1;strokeColor=none;fillColor=none;align=center;verticalAlign=middle;whiteSpace=wrap;rounded=0;" vertex="1" parent="H7dNSjDBitGNbYNH8bIm-156">
          <mxGeometry x="280" y="451" width="60" height="30" as="geometry" />
        </mxCell>
        <mxCell id="H7dNSjDBitGNbYNH8bIm-187" value="No" style="text;html=1;strokeColor=none;fillColor=none;align=center;verticalAlign=middle;whiteSpace=wrap;rounded=0;" vertex="1" parent="H7dNSjDBitGNbYNH8bIm-156">
          <mxGeometry x="107.5" y="451" width="60" height="30" as="geometry" />
        </mxCell>
        <mxCell id="H7dNSjDBitGNbYNH8bIm-188" value="" style="endArrow=classic;html=1;rounded=0;exitX=0.75;exitY=1;exitDx=0;exitDy=0;entryX=1;entryY=0.5;entryDx=0;entryDy=0;" edge="1" parent="H7dNSjDBitGNbYNH8bIm-156" source="H7dNSjDBitGNbYNH8bIm-165" target="H7dNSjDBitGNbYNH8bIm-164">
          <mxGeometry width="50" height="50" relative="1" as="geometry">
            <mxPoint x="40" y="356" as="sourcePoint" />
            <mxPoint x="90" y="306" as="targetPoint" />
          </mxGeometry>
        </mxCell>
        <mxCell id="H7dNSjDBitGNbYNH8bIm-189" value="" style="group" vertex="1" connectable="0" parent="H7dNSjDBitGNbYNH8bIm-304">
          <mxGeometry x="11.5" y="893" width="630" height="545.5" as="geometry" />
        </mxCell>
        <mxCell id="H7dNSjDBitGNbYNH8bIm-190" value="create bool swap" style="rounded=0;whiteSpace=wrap;html=1;" vertex="1" parent="H7dNSjDBitGNbYNH8bIm-189">
          <mxGeometry x="154" y="63.5" width="120" height="60" as="geometry" />
        </mxCell>
        <mxCell id="H7dNSjDBitGNbYNH8bIm-191" value="are i &amp;amp; n even?&lt;br&gt;&lt;font style=&quot;font-size: 10px;&quot;&gt;(all first halfs compared to second halfs)&lt;/font&gt;" style="rhombus;whiteSpace=wrap;html=1;" vertex="1" parent="H7dNSjDBitGNbYNH8bIm-189">
          <mxGeometry x="445" y="222.5" width="150" height="80" as="geometry" />
        </mxCell>
        <mxCell id="H7dNSjDBitGNbYNH8bIm-192" value="value 1 &amp;gt; value 2?" style="rhombus;whiteSpace=wrap;html=1;" vertex="1" parent="H7dNSjDBitGNbYNH8bIm-189">
          <mxGeometry x="445" y="317.5" width="150" height="80" as="geometry" />
        </mxCell>
        <mxCell id="H7dNSjDBitGNbYNH8bIm-193" value="do while swap true" style="rhombus;whiteSpace=wrap;html=1;" vertex="1" parent="H7dNSjDBitGNbYNH8bIm-189">
          <mxGeometry x="139" y="140" width="150" height="80" as="geometry" />
        </mxCell>
        <mxCell id="H7dNSjDBitGNbYNH8bIm-194" value="set swap to false" style="rounded=0;whiteSpace=wrap;html=1;" vertex="1" parent="H7dNSjDBitGNbYNH8bIm-189">
          <mxGeometry x="320" y="150" width="120" height="60" as="geometry" />
        </mxCell>
        <mxCell id="H7dNSjDBitGNbYNH8bIm-195" value="create temp&lt;br&gt;store value 1&lt;br&gt;(hand values)" style="rounded=0;whiteSpace=wrap;html=1;" vertex="1" parent="H7dNSjDBitGNbYNH8bIm-189">
          <mxGeometry x="460" y="410" width="120" height="60" as="geometry" />
        </mxCell>
        <mxCell id="H7dNSjDBitGNbYNH8bIm-196" value="set value 1 &lt;br&gt;to value 2&lt;br&gt;(hand values)" style="rounded=0;whiteSpace=wrap;html=1;" vertex="1" parent="H7dNSjDBitGNbYNH8bIm-189">
          <mxGeometry x="307" y="410" width="120" height="60" as="geometry" />
        </mxCell>
        <mxCell id="H7dNSjDBitGNbYNH8bIm-197" value="outside counter = 1&lt;br&gt;(stops loop when&lt;br&gt;&amp;nbsp;i &amp;amp; n are even)" style="rounded=0;whiteSpace=wrap;html=1;" vertex="1" parent="H7dNSjDBitGNbYNH8bIm-189">
          <mxGeometry x="460" y="150" width="120" height="60" as="geometry" />
        </mxCell>
        <mxCell id="H7dNSjDBitGNbYNH8bIm-198" value="set value to to temp&lt;br&gt;aka original value 1&lt;br&gt;(hand values)" style="rounded=0;whiteSpace=wrap;html=1;" vertex="1" parent="H7dNSjDBitGNbYNH8bIm-189">
          <mxGeometry x="307" y="327.5" width="120" height="60" as="geometry" />
        </mxCell>
        <mxCell id="H7dNSjDBitGNbYNH8bIm-199" value="create temp&lt;br&gt;store value 1&lt;br&gt;(face values)" style="rounded=0;whiteSpace=wrap;html=1;" vertex="1" parent="H7dNSjDBitGNbYNH8bIm-189">
          <mxGeometry x="160" y="327.5" width="120" height="60" as="geometry" />
        </mxCell>
        <mxCell id="H7dNSjDBitGNbYNH8bIm-200" value="set value 1 &lt;br&gt;to value 2&lt;br&gt;(face values)" style="rounded=0;whiteSpace=wrap;html=1;" vertex="1" parent="H7dNSjDBitGNbYNH8bIm-189">
          <mxGeometry x="160" y="410" width="120" height="60" as="geometry" />
        </mxCell>
        <mxCell id="H7dNSjDBitGNbYNH8bIm-201" value="set value to to temp&lt;br&gt;aka original value 1&lt;br&gt;(face values)" style="rounded=0;whiteSpace=wrap;html=1;" vertex="1" parent="H7dNSjDBitGNbYNH8bIm-189">
          <mxGeometry x="160" y="485.5" width="120" height="60" as="geometry" />
        </mxCell>
        <mxCell id="H7dNSjDBitGNbYNH8bIm-202" value="Start bSort" style="ellipse;whiteSpace=wrap;html=1;" vertex="1" parent="H7dNSjDBitGNbYNH8bIm-189">
          <mxGeometry x="154" width="120" height="40" as="geometry" />
        </mxCell>
        <mxCell id="H7dNSjDBitGNbYNH8bIm-203" value="End bSort" style="ellipse;whiteSpace=wrap;html=1;" vertex="1" parent="H7dNSjDBitGNbYNH8bIm-189">
          <mxGeometry y="160" width="120" height="40" as="geometry" />
        </mxCell>
        <mxCell id="H7dNSjDBitGNbYNH8bIm-204" value="" style="endArrow=classic;html=1;rounded=0;exitX=0.5;exitY=1;exitDx=0;exitDy=0;entryX=0.5;entryY=0;entryDx=0;entryDy=0;" edge="1" parent="H7dNSjDBitGNbYNH8bIm-189" source="H7dNSjDBitGNbYNH8bIm-202" target="H7dNSjDBitGNbYNH8bIm-190">
          <mxGeometry width="50" height="50" relative="1" as="geometry">
            <mxPoint x="150" y="310" as="sourcePoint" />
            <mxPoint x="190" y="60" as="targetPoint" />
          </mxGeometry>
        </mxCell>
        <mxCell id="H7dNSjDBitGNbYNH8bIm-205" value="" style="endArrow=classic;html=1;rounded=0;exitX=0.5;exitY=1;exitDx=0;exitDy=0;" edge="1" parent="H7dNSjDBitGNbYNH8bIm-189" source="H7dNSjDBitGNbYNH8bIm-190" target="H7dNSjDBitGNbYNH8bIm-193">
          <mxGeometry width="50" height="50" relative="1" as="geometry">
            <mxPoint x="90" y="240" as="sourcePoint" />
            <mxPoint x="140" y="190" as="targetPoint" />
          </mxGeometry>
        </mxCell>
        <mxCell id="H7dNSjDBitGNbYNH8bIm-206" value="" style="endArrow=classic;html=1;rounded=0;exitX=0;exitY=0.5;exitDx=0;exitDy=0;entryX=1;entryY=0.5;entryDx=0;entryDy=0;" edge="1" parent="H7dNSjDBitGNbYNH8bIm-189" source="H7dNSjDBitGNbYNH8bIm-193" target="H7dNSjDBitGNbYNH8bIm-203">
          <mxGeometry width="50" height="50" relative="1" as="geometry">
            <mxPoint x="80" y="300" as="sourcePoint" />
            <mxPoint x="130" y="250" as="targetPoint" />
          </mxGeometry>
        </mxCell>
        <mxCell id="H7dNSjDBitGNbYNH8bIm-207" value="" style="endArrow=classic;html=1;rounded=0;exitX=1;exitY=0.5;exitDx=0;exitDy=0;entryX=0;entryY=0.5;entryDx=0;entryDy=0;" edge="1" parent="H7dNSjDBitGNbYNH8bIm-189" source="H7dNSjDBitGNbYNH8bIm-193" target="H7dNSjDBitGNbYNH8bIm-194">
          <mxGeometry width="50" height="50" relative="1" as="geometry">
            <mxPoint x="160" y="310" as="sourcePoint" />
            <mxPoint x="210" y="260" as="targetPoint" />
          </mxGeometry>
        </mxCell>
        <mxCell id="H7dNSjDBitGNbYNH8bIm-208" value="" style="endArrow=classic;html=1;rounded=0;exitX=1;exitY=0.5;exitDx=0;exitDy=0;entryX=0;entryY=0.5;entryDx=0;entryDy=0;" edge="1" parent="H7dNSjDBitGNbYNH8bIm-189" source="H7dNSjDBitGNbYNH8bIm-194" target="H7dNSjDBitGNbYNH8bIm-197">
          <mxGeometry width="50" height="50" relative="1" as="geometry">
            <mxPoint x="160" y="290" as="sourcePoint" />
            <mxPoint x="210" y="240" as="targetPoint" />
          </mxGeometry>
        </mxCell>
        <mxCell id="H7dNSjDBitGNbYNH8bIm-209" value="" style="endArrow=classic;html=1;rounded=0;exitX=0.5;exitY=1;exitDx=0;exitDy=0;entryX=0.5;entryY=0;entryDx=0;entryDy=0;" edge="1" parent="H7dNSjDBitGNbYNH8bIm-189" source="H7dNSjDBitGNbYNH8bIm-197" target="H7dNSjDBitGNbYNH8bIm-191">
          <mxGeometry width="50" height="50" relative="1" as="geometry">
            <mxPoint y="310" as="sourcePoint" />
            <mxPoint x="50" y="260" as="targetPoint" />
          </mxGeometry>
        </mxCell>
        <mxCell id="H7dNSjDBitGNbYNH8bIm-210" value="" style="endArrow=classic;html=1;rounded=0;exitX=0.5;exitY=1;exitDx=0;exitDy=0;entryX=0.5;entryY=0;entryDx=0;entryDy=0;" edge="1" parent="H7dNSjDBitGNbYNH8bIm-189" source="H7dNSjDBitGNbYNH8bIm-191" target="H7dNSjDBitGNbYNH8bIm-192">
          <mxGeometry width="50" height="50" relative="1" as="geometry">
            <mxPoint x="150" y="340" as="sourcePoint" />
            <mxPoint x="200" y="290" as="targetPoint" />
          </mxGeometry>
        </mxCell>
        <mxCell id="H7dNSjDBitGNbYNH8bIm-211" value="" style="endArrow=classic;html=1;rounded=0;exitX=0.5;exitY=1;exitDx=0;exitDy=0;entryX=0.5;entryY=0;entryDx=0;entryDy=0;" edge="1" parent="H7dNSjDBitGNbYNH8bIm-189" source="H7dNSjDBitGNbYNH8bIm-192" target="H7dNSjDBitGNbYNH8bIm-195">
          <mxGeometry width="50" height="50" relative="1" as="geometry">
            <mxPoint x="-20" y="360" as="sourcePoint" />
            <mxPoint x="30" y="310" as="targetPoint" />
          </mxGeometry>
        </mxCell>
        <mxCell id="H7dNSjDBitGNbYNH8bIm-212" value="" style="endArrow=classic;html=1;rounded=0;entryX=1;entryY=0.5;entryDx=0;entryDy=0;exitX=1;exitY=0.5;exitDx=0;exitDy=0;" edge="1" parent="H7dNSjDBitGNbYNH8bIm-189" source="H7dNSjDBitGNbYNH8bIm-221" target="H7dNSjDBitGNbYNH8bIm-191">
          <mxGeometry width="50" height="50" relative="1" as="geometry">
            <mxPoint x="590" y="525.5" as="sourcePoint" />
            <mxPoint x="660" y="350" as="targetPoint" />
            <Array as="points">
              <mxPoint x="620" y="515.5" />
              <mxPoint x="620" y="262.5" />
            </Array>
          </mxGeometry>
        </mxCell>
        <mxCell id="H7dNSjDBitGNbYNH8bIm-213" value="" style="endArrow=classic;html=1;rounded=0;exitX=0;exitY=0.5;exitDx=0;exitDy=0;entryX=0.5;entryY=1;entryDx=0;entryDy=0;" edge="1" parent="H7dNSjDBitGNbYNH8bIm-189" source="H7dNSjDBitGNbYNH8bIm-191" target="H7dNSjDBitGNbYNH8bIm-193">
          <mxGeometry width="50" height="50" relative="1" as="geometry">
            <mxPoint x="30" y="450" as="sourcePoint" />
            <mxPoint x="80" y="400" as="targetPoint" />
            <Array as="points">
              <mxPoint x="214" y="263" />
            </Array>
          </mxGeometry>
        </mxCell>
        <mxCell id="H7dNSjDBitGNbYNH8bIm-214" value="" style="endArrow=classic;html=1;rounded=0;exitX=1;exitY=0.5;exitDx=0;exitDy=0;" edge="1" parent="H7dNSjDBitGNbYNH8bIm-189" source="H7dNSjDBitGNbYNH8bIm-192">
          <mxGeometry width="50" height="50" relative="1" as="geometry">
            <mxPoint x="150" y="370" as="sourcePoint" />
            <mxPoint x="620" y="358" as="targetPoint" />
          </mxGeometry>
        </mxCell>
        <mxCell id="H7dNSjDBitGNbYNH8bIm-215" value="No" style="text;html=1;strokeColor=none;fillColor=none;align=center;verticalAlign=middle;whiteSpace=wrap;rounded=0;" vertex="1" parent="H7dNSjDBitGNbYNH8bIm-189">
          <mxGeometry x="570" y="332" width="60" height="30" as="geometry" />
        </mxCell>
        <mxCell id="H7dNSjDBitGNbYNH8bIm-216" value="No" style="text;html=1;strokeColor=none;fillColor=none;align=center;verticalAlign=middle;whiteSpace=wrap;rounded=0;" vertex="1" parent="H7dNSjDBitGNbYNH8bIm-189">
          <mxGeometry x="470" y="293" width="60" height="30" as="geometry" />
        </mxCell>
        <mxCell id="H7dNSjDBitGNbYNH8bIm-217" value="No" style="text;html=1;strokeColor=none;fillColor=none;align=center;verticalAlign=middle;whiteSpace=wrap;rounded=0;" vertex="1" parent="H7dNSjDBitGNbYNH8bIm-189">
          <mxGeometry x="270" y="150" width="60" height="30" as="geometry" />
        </mxCell>
        <mxCell id="H7dNSjDBitGNbYNH8bIm-218" value="Yes" style="text;html=1;strokeColor=none;fillColor=none;align=center;verticalAlign=middle;whiteSpace=wrap;rounded=0;" vertex="1" parent="H7dNSjDBitGNbYNH8bIm-189">
          <mxGeometry x="470" y="385" width="60" height="30" as="geometry" />
        </mxCell>
        <mxCell id="H7dNSjDBitGNbYNH8bIm-219" value="Yes" style="text;html=1;strokeColor=none;fillColor=none;align=center;verticalAlign=middle;whiteSpace=wrap;rounded=0;" vertex="1" parent="H7dNSjDBitGNbYNH8bIm-189">
          <mxGeometry x="400" y="234" width="60" height="30" as="geometry" />
        </mxCell>
        <mxCell id="H7dNSjDBitGNbYNH8bIm-220" value="Yes" style="text;html=1;strokeColor=none;fillColor=none;align=center;verticalAlign=middle;whiteSpace=wrap;rounded=0;" vertex="1" parent="H7dNSjDBitGNbYNH8bIm-189">
          <mxGeometry x="100" y="148" width="60" height="30" as="geometry" />
        </mxCell>
        <mxCell id="H7dNSjDBitGNbYNH8bIm-221" value="(loop ends)&lt;br&gt;increment i&lt;br&gt;decrement n" style="rounded=0;whiteSpace=wrap;html=1;" vertex="1" parent="H7dNSjDBitGNbYNH8bIm-189">
          <mxGeometry x="307" y="485.5" width="120" height="60" as="geometry" />
        </mxCell>
        <mxCell id="H7dNSjDBitGNbYNH8bIm-222" value="" style="endArrow=classic;html=1;rounded=0;exitX=0;exitY=0.5;exitDx=0;exitDy=0;" edge="1" parent="H7dNSjDBitGNbYNH8bIm-189" source="H7dNSjDBitGNbYNH8bIm-195" target="H7dNSjDBitGNbYNH8bIm-196">
          <mxGeometry width="50" height="50" relative="1" as="geometry">
            <mxPoint x="130" y="465.5" as="sourcePoint" />
            <mxPoint x="180" y="415.5" as="targetPoint" />
          </mxGeometry>
        </mxCell>
        <mxCell id="H7dNSjDBitGNbYNH8bIm-223" value="" style="endArrow=classic;html=1;rounded=0;exitX=0;exitY=0.5;exitDx=0;exitDy=0;entryX=1;entryY=0.5;entryDx=0;entryDy=0;" edge="1" parent="H7dNSjDBitGNbYNH8bIm-189" source="H7dNSjDBitGNbYNH8bIm-198" target="H7dNSjDBitGNbYNH8bIm-199">
          <mxGeometry width="50" height="50" relative="1" as="geometry">
            <mxPoint x="150" y="465.5" as="sourcePoint" />
            <mxPoint x="200" y="415.5" as="targetPoint" />
          </mxGeometry>
        </mxCell>
        <mxCell id="H7dNSjDBitGNbYNH8bIm-224" value="" style="endArrow=classic;html=1;rounded=0;exitX=0.5;exitY=0;exitDx=0;exitDy=0;entryX=0.5;entryY=1;entryDx=0;entryDy=0;" edge="1" parent="H7dNSjDBitGNbYNH8bIm-189" source="H7dNSjDBitGNbYNH8bIm-196" target="H7dNSjDBitGNbYNH8bIm-198">
          <mxGeometry width="50" height="50" relative="1" as="geometry">
            <mxPoint x="90" y="425.5" as="sourcePoint" />
            <mxPoint x="140" y="375.5" as="targetPoint" />
          </mxGeometry>
        </mxCell>
        <mxCell id="H7dNSjDBitGNbYNH8bIm-225" value="" style="endArrow=classic;html=1;rounded=0;exitX=0.5;exitY=1;exitDx=0;exitDy=0;entryX=0.5;entryY=0;entryDx=0;entryDy=0;" edge="1" parent="H7dNSjDBitGNbYNH8bIm-189" source="H7dNSjDBitGNbYNH8bIm-199" target="H7dNSjDBitGNbYNH8bIm-200">
          <mxGeometry width="50" height="50" relative="1" as="geometry">
            <mxPoint x="130" y="445.5" as="sourcePoint" />
            <mxPoint x="180" y="395.5" as="targetPoint" />
          </mxGeometry>
        </mxCell>
        <mxCell id="H7dNSjDBitGNbYNH8bIm-226" value="" style="endArrow=classic;html=1;rounded=0;exitX=0.5;exitY=1;exitDx=0;exitDy=0;entryX=0.5;entryY=0;entryDx=0;entryDy=0;" edge="1" parent="H7dNSjDBitGNbYNH8bIm-189" source="H7dNSjDBitGNbYNH8bIm-200" target="H7dNSjDBitGNbYNH8bIm-201">
          <mxGeometry width="50" height="50" relative="1" as="geometry">
            <mxPoint x="120" y="485.5" as="sourcePoint" />
            <mxPoint x="170" y="435.5" as="targetPoint" />
          </mxGeometry>
        </mxCell>
        <mxCell id="H7dNSjDBitGNbYNH8bIm-227" value="" style="endArrow=classic;html=1;rounded=0;exitX=1;exitY=0.5;exitDx=0;exitDy=0;entryX=0;entryY=0.5;entryDx=0;entryDy=0;" edge="1" parent="H7dNSjDBitGNbYNH8bIm-189" source="H7dNSjDBitGNbYNH8bIm-201" target="H7dNSjDBitGNbYNH8bIm-221">
          <mxGeometry width="50" height="50" relative="1" as="geometry">
            <mxPoint x="130" y="485.5" as="sourcePoint" />
            <mxPoint x="180" y="435.5" as="targetPoint" />
          </mxGeometry>
        </mxCell>
        <mxCell id="H7dNSjDBitGNbYNH8bIm-228" value="" style="group" vertex="1" connectable="0" parent="H7dNSjDBitGNbYNH8bIm-304">
          <mxGeometry x="641.5" y="25" width="465" height="643" as="geometry" />
        </mxCell>
        <mxCell id="H7dNSjDBitGNbYNH8bIm-229" value="set value i to to temp&lt;br&gt;aka original value J&lt;br&gt;(hand values)" style="rounded=0;whiteSpace=wrap;html=1;container=0;" vertex="1" parent="H7dNSjDBitGNbYNH8bIm-228">
          <mxGeometry x="345" y="583" width="120" height="60" as="geometry" />
        </mxCell>
        <mxCell id="H7dNSjDBitGNbYNH8bIm-230" value="create temp&lt;br&gt;store value J&lt;br&gt;(face values)" style="rounded=0;whiteSpace=wrap;html=1;container=0;" vertex="1" parent="H7dNSjDBitGNbYNH8bIm-228">
          <mxGeometry x="174" y="583" width="120" height="60" as="geometry" />
        </mxCell>
        <mxCell id="H7dNSjDBitGNbYNH8bIm-231" value="value j &amp;gt; value i?" style="rhombus;whiteSpace=wrap;html=1;container=0;" vertex="1" parent="H7dNSjDBitGNbYNH8bIm-228">
          <mxGeometry x="159" y="415" width="150" height="80" as="geometry" />
        </mxCell>
        <mxCell id="H7dNSjDBitGNbYNH8bIm-232" value="create temp&lt;br&gt;store J value&lt;br&gt;(hand values)" style="rounded=0;whiteSpace=wrap;html=1;container=0;" vertex="1" parent="H7dNSjDBitGNbYNH8bIm-228">
          <mxGeometry x="345" y="425" width="120" height="60" as="geometry" />
        </mxCell>
        <mxCell id="H7dNSjDBitGNbYNH8bIm-233" value="set value J&lt;br&gt;to value i&lt;br&gt;(hand values)" style="rounded=0;whiteSpace=wrap;html=1;container=0;" vertex="1" parent="H7dNSjDBitGNbYNH8bIm-228">
          <mxGeometry x="345" y="504" width="120" height="60" as="geometry" />
        </mxCell>
        <mxCell id="H7dNSjDBitGNbYNH8bIm-234" value="set value J&lt;br&gt;to value i&lt;br&gt;(face values)" style="rounded=0;whiteSpace=wrap;html=1;container=0;" vertex="1" parent="H7dNSjDBitGNbYNH8bIm-228">
          <mxGeometry y="583" width="120" height="60" as="geometry" />
        </mxCell>
        <mxCell id="H7dNSjDBitGNbYNH8bIm-235" value="set value i to temp&lt;br&gt;aka original value 1&lt;br&gt;(face values)" style="rounded=0;whiteSpace=wrap;html=1;container=0;" vertex="1" parent="H7dNSjDBitGNbYNH8bIm-228">
          <mxGeometry y="504" width="120" height="60" as="geometry" />
        </mxCell>
        <mxCell id="H7dNSjDBitGNbYNH8bIm-236" value="Start mSort" style="ellipse;whiteSpace=wrap;html=1;container=0;" vertex="1" parent="H7dNSjDBitGNbYNH8bIm-228">
          <mxGeometry x="174" width="120" height="40" as="geometry" />
        </mxCell>
        <mxCell id="H7dNSjDBitGNbYNH8bIm-237" value="End mSort" style="ellipse;whiteSpace=wrap;html=1;container=0;" vertex="1" parent="H7dNSjDBitGNbYNH8bIm-228">
          <mxGeometry y="158" width="120" height="40" as="geometry" />
        </mxCell>
        <mxCell id="H7dNSjDBitGNbYNH8bIm-238" value="int i &amp;lt; 13?" style="rhombus;whiteSpace=wrap;html=1;container=0;" vertex="1" parent="H7dNSjDBitGNbYNH8bIm-228">
          <mxGeometry x="159" y="315.5" width="150" height="80" as="geometry" />
        </mxCell>
        <mxCell id="H7dNSjDBitGNbYNH8bIm-239" value="j = 0" style="rounded=0;whiteSpace=wrap;html=1;container=0;" vertex="1" parent="H7dNSjDBitGNbYNH8bIm-228">
          <mxGeometry x="174" y="62.5" width="120" height="60" as="geometry" />
        </mxCell>
        <mxCell id="H7dNSjDBitGNbYNH8bIm-240" value="(loop ends)&lt;br&gt;increment i" style="rounded=0;whiteSpace=wrap;html=1;container=0;" vertex="1" parent="H7dNSjDBitGNbYNH8bIm-228">
          <mxGeometry y="325.5" width="120" height="60" as="geometry" />
        </mxCell>
        <mxCell id="H7dNSjDBitGNbYNH8bIm-241" value="(loop ends)&lt;br&gt;increment j" style="rounded=0;whiteSpace=wrap;html=1;container=0;" vertex="1" parent="H7dNSjDBitGNbYNH8bIm-228">
          <mxGeometry x="345" y="237.5" width="120" height="60" as="geometry" />
        </mxCell>
        <mxCell id="H7dNSjDBitGNbYNH8bIm-242" value="j &amp;lt; 13?" style="rhombus;whiteSpace=wrap;html=1;container=0;" vertex="1" parent="H7dNSjDBitGNbYNH8bIm-228">
          <mxGeometry x="159" y="138" width="150" height="80" as="geometry" />
        </mxCell>
        <mxCell id="H7dNSjDBitGNbYNH8bIm-243" value="i = 0" style="rounded=0;whiteSpace=wrap;html=1;container=0;" vertex="1" parent="H7dNSjDBitGNbYNH8bIm-228">
          <mxGeometry x="174" y="237.5" width="120" height="60" as="geometry" />
        </mxCell>
        <mxCell id="H7dNSjDBitGNbYNH8bIm-244" value="" style="endArrow=classic;html=1;rounded=0;exitX=0;exitY=0.5;exitDx=0;exitDy=0;entryX=0.5;entryY=1;entryDx=0;entryDy=0;" edge="1" parent="H7dNSjDBitGNbYNH8bIm-228" source="H7dNSjDBitGNbYNH8bIm-231" target="H7dNSjDBitGNbYNH8bIm-240">
          <mxGeometry width="50" height="50" relative="1" as="geometry">
            <mxPoint x="-30" y="651" as="sourcePoint" />
            <mxPoint x="20" y="601" as="targetPoint" />
            <Array as="points">
              <mxPoint x="60" y="455" />
            </Array>
          </mxGeometry>
        </mxCell>
        <mxCell id="H7dNSjDBitGNbYNH8bIm-245" value="" style="endArrow=classic;html=1;rounded=0;exitX=1;exitY=0.5;exitDx=0;exitDy=0;entryX=0.5;entryY=1;entryDx=0;entryDy=0;" edge="1" parent="H7dNSjDBitGNbYNH8bIm-228" source="H7dNSjDBitGNbYNH8bIm-238" target="H7dNSjDBitGNbYNH8bIm-241">
          <mxGeometry width="50" height="50" relative="1" as="geometry">
            <mxPoint x="360" y="381" as="sourcePoint" />
            <mxPoint x="410" y="331" as="targetPoint" />
            <Array as="points">
              <mxPoint x="405" y="356" />
            </Array>
          </mxGeometry>
        </mxCell>
        <mxCell id="H7dNSjDBitGNbYNH8bIm-246" value="" style="endArrow=classic;html=1;rounded=0;exitX=0.5;exitY=1;exitDx=0;exitDy=0;entryX=0.5;entryY=0;entryDx=0;entryDy=0;" edge="1" parent="H7dNSjDBitGNbYNH8bIm-228" source="H7dNSjDBitGNbYNH8bIm-236" target="H7dNSjDBitGNbYNH8bIm-239">
          <mxGeometry width="50" height="50" relative="1" as="geometry">
            <mxPoint x="-60" y="381" as="sourcePoint" />
            <mxPoint x="-10" y="331" as="targetPoint" />
          </mxGeometry>
        </mxCell>
        <mxCell id="H7dNSjDBitGNbYNH8bIm-247" value="" style="endArrow=classic;html=1;rounded=0;exitX=0.5;exitY=1;exitDx=0;exitDy=0;entryX=0.5;entryY=0;entryDx=0;entryDy=0;" edge="1" parent="H7dNSjDBitGNbYNH8bIm-228" source="H7dNSjDBitGNbYNH8bIm-239" target="H7dNSjDBitGNbYNH8bIm-242">
          <mxGeometry width="50" height="50" relative="1" as="geometry">
            <mxPoint x="-180" y="331" as="sourcePoint" />
            <mxPoint x="-130" y="281" as="targetPoint" />
          </mxGeometry>
        </mxCell>
        <mxCell id="H7dNSjDBitGNbYNH8bIm-248" value="" style="endArrow=classic;html=1;rounded=0;exitX=0.5;exitY=1;exitDx=0;exitDy=0;" edge="1" parent="H7dNSjDBitGNbYNH8bIm-228" source="H7dNSjDBitGNbYNH8bIm-242" target="H7dNSjDBitGNbYNH8bIm-243">
          <mxGeometry width="50" height="50" relative="1" as="geometry">
            <mxPoint x="-120" y="351" as="sourcePoint" />
            <mxPoint x="-70" y="301" as="targetPoint" />
          </mxGeometry>
        </mxCell>
        <mxCell id="H7dNSjDBitGNbYNH8bIm-249" value="" style="endArrow=classic;html=1;rounded=0;exitX=1;exitY=0.5;exitDx=0;exitDy=0;entryX=0;entryY=0.5;entryDx=0;entryDy=0;" edge="1" parent="H7dNSjDBitGNbYNH8bIm-228" source="H7dNSjDBitGNbYNH8bIm-231" target="H7dNSjDBitGNbYNH8bIm-232">
          <mxGeometry width="50" height="50" relative="1" as="geometry">
            <mxPoint x="-150" y="581" as="sourcePoint" />
            <mxPoint x="-100" y="531" as="targetPoint" />
          </mxGeometry>
        </mxCell>
        <mxCell id="H7dNSjDBitGNbYNH8bIm-250" value="" style="endArrow=classic;html=1;rounded=0;exitX=0.5;exitY=1;exitDx=0;exitDy=0;entryX=0.5;entryY=0;entryDx=0;entryDy=0;" edge="1" parent="H7dNSjDBitGNbYNH8bIm-228" source="H7dNSjDBitGNbYNH8bIm-232" target="H7dNSjDBitGNbYNH8bIm-233">
          <mxGeometry width="50" height="50" relative="1" as="geometry">
            <mxPoint x="220" y="561" as="sourcePoint" />
            <mxPoint x="270" y="511" as="targetPoint" />
          </mxGeometry>
        </mxCell>
        <mxCell id="H7dNSjDBitGNbYNH8bIm-251" value="" style="endArrow=classic;html=1;rounded=0;exitX=0.5;exitY=1;exitDx=0;exitDy=0;" edge="1" parent="H7dNSjDBitGNbYNH8bIm-228" source="H7dNSjDBitGNbYNH8bIm-233" target="H7dNSjDBitGNbYNH8bIm-229">
          <mxGeometry width="50" height="50" relative="1" as="geometry">
            <mxPoint x="210" y="601" as="sourcePoint" />
            <mxPoint x="260" y="551" as="targetPoint" />
          </mxGeometry>
        </mxCell>
        <mxCell id="H7dNSjDBitGNbYNH8bIm-252" value="" style="endArrow=classic;html=1;rounded=0;exitX=0;exitY=0.5;exitDx=0;exitDy=0;entryX=1;entryY=0.5;entryDx=0;entryDy=0;" edge="1" parent="H7dNSjDBitGNbYNH8bIm-228" source="H7dNSjDBitGNbYNH8bIm-229" target="H7dNSjDBitGNbYNH8bIm-230">
          <mxGeometry width="50" height="50" relative="1" as="geometry">
            <mxPoint x="160" y="591" as="sourcePoint" />
            <mxPoint x="210" y="541" as="targetPoint" />
          </mxGeometry>
        </mxCell>
        <mxCell id="H7dNSjDBitGNbYNH8bIm-253" value="" style="endArrow=classic;html=1;rounded=0;exitX=0;exitY=0.5;exitDx=0;exitDy=0;" edge="1" parent="H7dNSjDBitGNbYNH8bIm-228" source="H7dNSjDBitGNbYNH8bIm-230" target="H7dNSjDBitGNbYNH8bIm-234">
          <mxGeometry width="50" height="50" relative="1" as="geometry">
            <mxPoint x="290" y="581" as="sourcePoint" />
            <mxPoint x="340" y="531" as="targetPoint" />
          </mxGeometry>
        </mxCell>
        <mxCell id="H7dNSjDBitGNbYNH8bIm-254" value="" style="endArrow=classic;html=1;rounded=0;exitX=0.5;exitY=0;exitDx=0;exitDy=0;entryX=0.5;entryY=1;entryDx=0;entryDy=0;" edge="1" parent="H7dNSjDBitGNbYNH8bIm-228" source="H7dNSjDBitGNbYNH8bIm-234" target="H7dNSjDBitGNbYNH8bIm-235">
          <mxGeometry width="50" height="50" relative="1" as="geometry">
            <mxPoint x="180" y="571" as="sourcePoint" />
            <mxPoint x="230" y="521" as="targetPoint" />
          </mxGeometry>
        </mxCell>
        <mxCell id="H7dNSjDBitGNbYNH8bIm-255" value="" style="endArrow=classic;html=1;rounded=0;exitX=0.5;exitY=0;exitDx=0;exitDy=0;" edge="1" parent="H7dNSjDBitGNbYNH8bIm-228" source="H7dNSjDBitGNbYNH8bIm-235">
          <mxGeometry width="50" height="50" relative="1" as="geometry">
            <mxPoint x="170" y="611" as="sourcePoint" />
            <mxPoint x="60" y="451" as="targetPoint" />
          </mxGeometry>
        </mxCell>
        <mxCell id="H7dNSjDBitGNbYNH8bIm-256" value="" style="endArrow=classic;html=1;rounded=0;exitX=0.5;exitY=1;exitDx=0;exitDy=0;entryX=0.5;entryY=0;entryDx=0;entryDy=0;" edge="1" parent="H7dNSjDBitGNbYNH8bIm-228" source="H7dNSjDBitGNbYNH8bIm-243" target="H7dNSjDBitGNbYNH8bIm-238">
          <mxGeometry width="50" height="50" relative="1" as="geometry">
            <mxPoint x="-120" y="321" as="sourcePoint" />
            <mxPoint x="-70" y="271" as="targetPoint" />
          </mxGeometry>
        </mxCell>
        <mxCell id="H7dNSjDBitGNbYNH8bIm-257" value="" style="endArrow=classic;html=1;rounded=0;exitX=0.5;exitY=1;exitDx=0;exitDy=0;entryX=0.5;entryY=0;entryDx=0;entryDy=0;" edge="1" parent="H7dNSjDBitGNbYNH8bIm-228" source="H7dNSjDBitGNbYNH8bIm-238" target="H7dNSjDBitGNbYNH8bIm-231">
          <mxGeometry width="50" height="50" relative="1" as="geometry">
            <mxPoint x="-170" y="461" as="sourcePoint" />
            <mxPoint x="-120" y="411" as="targetPoint" />
          </mxGeometry>
        </mxCell>
        <mxCell id="H7dNSjDBitGNbYNH8bIm-258" value="" style="endArrow=classic;html=1;rounded=0;exitX=0;exitY=0.5;exitDx=0;exitDy=0;entryX=1;entryY=0.5;entryDx=0;entryDy=0;" edge="1" parent="H7dNSjDBitGNbYNH8bIm-228" source="H7dNSjDBitGNbYNH8bIm-242" target="H7dNSjDBitGNbYNH8bIm-237">
          <mxGeometry width="50" height="50" relative="1" as="geometry">
            <mxPoint x="-130" y="381" as="sourcePoint" />
            <mxPoint x="-80" y="331" as="targetPoint" />
          </mxGeometry>
        </mxCell>
        <mxCell id="H7dNSjDBitGNbYNH8bIm-259" value="" style="endArrow=classic;html=1;rounded=0;exitX=0.5;exitY=0;exitDx=0;exitDy=0;entryX=1;entryY=0.5;entryDx=0;entryDy=0;" edge="1" parent="H7dNSjDBitGNbYNH8bIm-228" source="H7dNSjDBitGNbYNH8bIm-241" target="H7dNSjDBitGNbYNH8bIm-242">
          <mxGeometry width="50" height="50" relative="1" as="geometry">
            <mxPoint x="560" y="321" as="sourcePoint" />
            <mxPoint x="610" y="271" as="targetPoint" />
            <Array as="points">
              <mxPoint x="405" y="178" />
            </Array>
          </mxGeometry>
        </mxCell>
        <mxCell id="H7dNSjDBitGNbYNH8bIm-260" value="" style="endArrow=classic;html=1;rounded=0;exitX=1;exitY=0.5;exitDx=0;exitDy=0;entryX=0;entryY=0.5;entryDx=0;entryDy=0;" edge="1" parent="H7dNSjDBitGNbYNH8bIm-228" source="H7dNSjDBitGNbYNH8bIm-240" target="H7dNSjDBitGNbYNH8bIm-238">
          <mxGeometry width="50" height="50" relative="1" as="geometry">
            <mxPoint x="20" y="421" as="sourcePoint" />
            <mxPoint x="70" y="371" as="targetPoint" />
          </mxGeometry>
        </mxCell>
        <mxCell id="H7dNSjDBitGNbYNH8bIm-261" value="Yes" style="text;html=1;strokeColor=none;fillColor=none;align=center;verticalAlign=middle;whiteSpace=wrap;rounded=0;container=0;" vertex="1" parent="H7dNSjDBitGNbYNH8bIm-228">
          <mxGeometry x="285" y="428.5" width="60" height="30" as="geometry" />
        </mxCell>
        <mxCell id="H7dNSjDBitGNbYNH8bIm-262" value="No" style="text;html=1;strokeColor=none;fillColor=none;align=center;verticalAlign=middle;whiteSpace=wrap;rounded=0;container=0;" vertex="1" parent="H7dNSjDBitGNbYNH8bIm-228">
          <mxGeometry x="80" y="428.5" width="60" height="30" as="geometry" />
        </mxCell>
        <mxCell id="H7dNSjDBitGNbYNH8bIm-263" value="No" style="text;html=1;strokeColor=none;fillColor=none;align=center;verticalAlign=middle;whiteSpace=wrap;rounded=0;container=0;" vertex="1" parent="H7dNSjDBitGNbYNH8bIm-228">
          <mxGeometry x="294" y="330" width="60" height="30" as="geometry" />
        </mxCell>
        <mxCell id="H7dNSjDBitGNbYNH8bIm-264" value="No" style="text;html=1;strokeColor=none;fillColor=none;align=center;verticalAlign=middle;whiteSpace=wrap;rounded=0;container=0;" vertex="1" parent="H7dNSjDBitGNbYNH8bIm-228">
          <mxGeometry x="110" y="153" width="60" height="30" as="geometry" />
        </mxCell>
        <mxCell id="H7dNSjDBitGNbYNH8bIm-265" value="Yes" style="text;html=1;strokeColor=none;fillColor=none;align=center;verticalAlign=middle;whiteSpace=wrap;rounded=0;container=0;" vertex="1" parent="H7dNSjDBitGNbYNH8bIm-228">
          <mxGeometry x="180" y="390.5" width="60" height="30" as="geometry" />
        </mxCell>
        <mxCell id="H7dNSjDBitGNbYNH8bIm-266" value="Yes" style="text;html=1;strokeColor=none;fillColor=none;align=center;verticalAlign=middle;whiteSpace=wrap;rounded=0;container=0;" vertex="1" parent="H7dNSjDBitGNbYNH8bIm-228">
          <mxGeometry x="190" y="210" width="60" height="30" as="geometry" />
        </mxCell>
        <mxCell id="H7dNSjDBitGNbYNH8bIm-267" value="" style="group" vertex="1" connectable="0" parent="H7dNSjDBitGNbYNH8bIm-304">
          <mxGeometry x="1307.5" y="48.5" width="235" height="437.5" as="geometry" />
        </mxCell>
        <mxCell id="H7dNSjDBitGNbYNH8bIm-268" value="increment counter" style="rounded=0;whiteSpace=wrap;html=1;" vertex="1" parent="H7dNSjDBitGNbYNH8bIm-267">
          <mxGeometry x="15" y="141.5" width="120" height="60" as="geometry" />
        </mxCell>
        <mxCell id="H7dNSjDBitGNbYNH8bIm-269" value="Yes" style="text;html=1;strokeColor=none;fillColor=none;align=center;verticalAlign=middle;whiteSpace=wrap;rounded=0;" vertex="1" parent="H7dNSjDBitGNbYNH8bIm-267">
          <mxGeometry x="164" y="275.5" width="60" height="30" as="geometry" />
        </mxCell>
        <mxCell id="H7dNSjDBitGNbYNH8bIm-270" value="No" style="text;html=1;strokeColor=none;fillColor=none;align=center;verticalAlign=middle;whiteSpace=wrap;rounded=0;" vertex="1" parent="H7dNSjDBitGNbYNH8bIm-267">
          <mxGeometry x="25" y="306.5" width="60" height="30" as="geometry" />
        </mxCell>
        <mxCell id="H7dNSjDBitGNbYNH8bIm-271" value="Start count" style="ellipse;whiteSpace=wrap;html=1;" vertex="1" parent="H7dNSjDBitGNbYNH8bIm-267">
          <mxGeometry x="15" width="120" height="40" as="geometry" />
        </mxCell>
        <mxCell id="H7dNSjDBitGNbYNH8bIm-272" value="End count" style="ellipse;whiteSpace=wrap;html=1;" vertex="1" parent="H7dNSjDBitGNbYNH8bIm-267">
          <mxGeometry x="15" y="397.5" width="120" height="40" as="geometry" />
        </mxCell>
        <mxCell id="H7dNSjDBitGNbYNH8bIm-273" value="set static &lt;br&gt;counter to 0" style="rounded=0;whiteSpace=wrap;html=1;" vertex="1" parent="H7dNSjDBitGNbYNH8bIm-267">
          <mxGeometry x="15" y="59.5" width="120" height="60" as="geometry" />
        </mxCell>
        <mxCell id="H7dNSjDBitGNbYNH8bIm-274" value="counter = 13?" style="rhombus;whiteSpace=wrap;html=1;" vertex="1" parent="H7dNSjDBitGNbYNH8bIm-267">
          <mxGeometry y="220.5" width="150" height="80" as="geometry" />
        </mxCell>
        <mxCell id="H7dNSjDBitGNbYNH8bIm-275" value="set counter back to 0" style="rounded=0;whiteSpace=wrap;html=1;" vertex="1" parent="H7dNSjDBitGNbYNH8bIm-267">
          <mxGeometry x="115" y="315.75" width="120" height="60" as="geometry" />
        </mxCell>
        <mxCell id="H7dNSjDBitGNbYNH8bIm-276" value="" style="endArrow=classic;html=1;rounded=0;exitX=0.5;exitY=1;exitDx=0;exitDy=0;entryX=0.5;entryY=0;entryDx=0;entryDy=0;" edge="1" parent="H7dNSjDBitGNbYNH8bIm-267" source="H7dNSjDBitGNbYNH8bIm-271" target="H7dNSjDBitGNbYNH8bIm-273">
          <mxGeometry width="50" height="50" relative="1" as="geometry">
            <mxPoint x="-315" y="327.5" as="sourcePoint" />
            <mxPoint x="-265" y="277.5" as="targetPoint" />
          </mxGeometry>
        </mxCell>
        <mxCell id="H7dNSjDBitGNbYNH8bIm-277" value="" style="endArrow=classic;html=1;rounded=0;exitX=0.5;exitY=1;exitDx=0;exitDy=0;entryX=0.5;entryY=0;entryDx=0;entryDy=0;" edge="1" parent="H7dNSjDBitGNbYNH8bIm-267" source="H7dNSjDBitGNbYNH8bIm-273" target="H7dNSjDBitGNbYNH8bIm-268">
          <mxGeometry width="50" height="50" relative="1" as="geometry">
            <mxPoint x="-375" y="347.5" as="sourcePoint" />
            <mxPoint x="-325" y="297.5" as="targetPoint" />
          </mxGeometry>
        </mxCell>
        <mxCell id="H7dNSjDBitGNbYNH8bIm-278" value="" style="endArrow=classic;html=1;rounded=0;exitX=0.5;exitY=1;exitDx=0;exitDy=0;entryX=0.5;entryY=0;entryDx=0;entryDy=0;" edge="1" parent="H7dNSjDBitGNbYNH8bIm-267" source="H7dNSjDBitGNbYNH8bIm-268" target="H7dNSjDBitGNbYNH8bIm-274">
          <mxGeometry width="50" height="50" relative="1" as="geometry">
            <mxPoint x="-275" y="317.5" as="sourcePoint" />
            <mxPoint x="-225" y="267.5" as="targetPoint" />
          </mxGeometry>
        </mxCell>
        <mxCell id="H7dNSjDBitGNbYNH8bIm-279" value="" style="endArrow=classic;html=1;rounded=0;exitX=0.5;exitY=1;exitDx=0;exitDy=0;entryX=0.5;entryY=0;entryDx=0;entryDy=0;" edge="1" parent="H7dNSjDBitGNbYNH8bIm-267" source="H7dNSjDBitGNbYNH8bIm-274" target="H7dNSjDBitGNbYNH8bIm-272">
          <mxGeometry width="50" height="50" relative="1" as="geometry">
            <mxPoint x="-335" y="377.5" as="sourcePoint" />
            <mxPoint x="-285" y="337.5" as="targetPoint" />
          </mxGeometry>
        </mxCell>
        <mxCell id="H7dNSjDBitGNbYNH8bIm-280" value="" style="endArrow=classic;html=1;rounded=0;exitX=1;exitY=0.5;exitDx=0;exitDy=0;entryX=0.5;entryY=0;entryDx=0;entryDy=0;" edge="1" parent="H7dNSjDBitGNbYNH8bIm-267" source="H7dNSjDBitGNbYNH8bIm-274" target="H7dNSjDBitGNbYNH8bIm-275">
          <mxGeometry width="50" height="50" relative="1" as="geometry">
            <mxPoint x="-465" y="367.5" as="sourcePoint" />
            <mxPoint x="-415" y="317.5" as="targetPoint" />
            <Array as="points">
              <mxPoint x="175" y="260.5" />
            </Array>
          </mxGeometry>
        </mxCell>
        <mxCell id="H7dNSjDBitGNbYNH8bIm-281" value="" style="endArrow=classic;html=1;rounded=0;exitX=0;exitY=0.5;exitDx=0;exitDy=0;" edge="1" parent="H7dNSjDBitGNbYNH8bIm-267" source="H7dNSjDBitGNbYNH8bIm-275">
          <mxGeometry width="50" height="50" relative="1" as="geometry">
            <mxPoint x="-185" y="327.5" as="sourcePoint" />
            <mxPoint x="75" y="347.5" as="targetPoint" />
          </mxGeometry>
        </mxCell>
        <mxCell id="H7dNSjDBitGNbYNH8bIm-282" value="" style="group" vertex="1" connectable="0" parent="H7dNSjDBitGNbYNH8bIm-304">
          <mxGeometry x="96.5" y="1550" width="310" height="540.5" as="geometry" />
        </mxCell>
        <mxCell id="H7dNSjDBitGNbYNH8bIm-283" value="found = false;" style="rounded=0;whiteSpace=wrap;html=1;" vertex="1" parent="H7dNSjDBitGNbYNH8bIm-282">
          <mxGeometry x="92" y="62" width="120" height="60" as="geometry" />
        </mxCell>
        <mxCell id="H7dNSjDBitGNbYNH8bIm-284" value="Yes" style="text;html=1;strokeColor=none;fillColor=none;align=center;verticalAlign=middle;whiteSpace=wrap;rounded=0;" vertex="1" parent="H7dNSjDBitGNbYNH8bIm-282">
          <mxGeometry x="190" y="298" width="60" height="30" as="geometry" />
        </mxCell>
        <mxCell id="H7dNSjDBitGNbYNH8bIm-285" value="No" style="text;html=1;strokeColor=none;fillColor=none;align=center;verticalAlign=middle;whiteSpace=wrap;rounded=0;" vertex="1" parent="H7dNSjDBitGNbYNH8bIm-282">
          <mxGeometry x="60.5" y="305.5" width="60" height="30" as="geometry" />
        </mxCell>
        <mxCell id="H7dNSjDBitGNbYNH8bIm-286" style="edgeStyle=orthogonalEdgeStyle;rounded=0;orthogonalLoop=1;jettySize=auto;html=1;exitX=0.5;exitY=1;exitDx=0;exitDy=0;entryX=0.5;entryY=0;entryDx=0;entryDy=0;" edge="1" parent="H7dNSjDBitGNbYNH8bIm-282" source="H7dNSjDBitGNbYNH8bIm-287" target="H7dNSjDBitGNbYNH8bIm-283">
          <mxGeometry relative="1" as="geometry" />
        </mxCell>
        <mxCell id="H7dNSjDBitGNbYNH8bIm-287" value="Start linSrch" style="ellipse;whiteSpace=wrap;html=1;" vertex="1" parent="H7dNSjDBitGNbYNH8bIm-282">
          <mxGeometry x="92" width="120" height="40" as="geometry" />
        </mxCell>
        <mxCell id="H7dNSjDBitGNbYNH8bIm-288" value="End linSrch" style="ellipse;whiteSpace=wrap;html=1;" vertex="1" parent="H7dNSjDBitGNbYNH8bIm-282">
          <mxGeometry x="92" y="500.5" width="120" height="40" as="geometry" />
        </mxCell>
        <mxCell id="H7dNSjDBitGNbYNH8bIm-289" style="edgeStyle=orthogonalEdgeStyle;rounded=0;orthogonalLoop=1;jettySize=auto;html=1;exitX=0.5;exitY=1;exitDx=0;exitDy=0;entryX=0.5;entryY=0;entryDx=0;entryDy=0;" edge="1" parent="H7dNSjDBitGNbYNH8bIm-282" source="H7dNSjDBitGNbYNH8bIm-290" target="H7dNSjDBitGNbYNH8bIm-288">
          <mxGeometry relative="1" as="geometry" />
        </mxCell>
        <mxCell id="H7dNSjDBitGNbYNH8bIm-290" value="return indx" style="rounded=0;whiteSpace=wrap;html=1;" vertex="1" parent="H7dNSjDBitGNbYNH8bIm-282">
          <mxGeometry x="92" y="421" width="120" height="60" as="geometry" />
        </mxCell>
        <mxCell id="H7dNSjDBitGNbYNH8bIm-291" value="deck[indx] == 1?" style="rhombus;whiteSpace=wrap;html=1;" vertex="1" parent="H7dNSjDBitGNbYNH8bIm-282">
          <mxGeometry x="77" y="240" width="150" height="80" as="geometry" />
        </mxCell>
        <mxCell id="H7dNSjDBitGNbYNH8bIm-292" style="edgeStyle=orthogonalEdgeStyle;rounded=0;orthogonalLoop=1;jettySize=auto;html=1;exitX=0.5;exitY=1;exitDx=0;exitDy=0;entryX=0.5;entryY=0;entryDx=0;entryDy=0;" edge="1" parent="H7dNSjDBitGNbYNH8bIm-282" source="H7dNSjDBitGNbYNH8bIm-294" target="H7dNSjDBitGNbYNH8bIm-291">
          <mxGeometry relative="1" as="geometry" />
        </mxCell>
        <mxCell id="H7dNSjDBitGNbYNH8bIm-293" style="edgeStyle=orthogonalEdgeStyle;rounded=0;orthogonalLoop=1;jettySize=auto;html=1;exitX=1;exitY=0.5;exitDx=0;exitDy=0;entryX=1;entryY=0.5;entryDx=0;entryDy=0;" edge="1" parent="H7dNSjDBitGNbYNH8bIm-282" source="H7dNSjDBitGNbYNH8bIm-294" target="H7dNSjDBitGNbYNH8bIm-290">
          <mxGeometry relative="1" as="geometry">
            <Array as="points">
              <mxPoint x="310" y="180.5" />
              <mxPoint x="310" y="451.5" />
            </Array>
          </mxGeometry>
        </mxCell>
        <mxCell id="H7dNSjDBitGNbYNH8bIm-294" value="while &lt;br&gt;indx &amp;lt; 52 &amp;amp;&amp;amp; !found&lt;br&gt;&amp;nbsp;" style="rhombus;whiteSpace=wrap;html=1;" vertex="1" parent="H7dNSjDBitGNbYNH8bIm-282">
          <mxGeometry x="77" y="140.5" width="150" height="80" as="geometry" />
        </mxCell>
        <mxCell id="H7dNSjDBitGNbYNH8bIm-295" style="edgeStyle=orthogonalEdgeStyle;rounded=0;orthogonalLoop=1;jettySize=auto;html=1;exitX=0.5;exitY=1;exitDx=0;exitDy=0;entryX=0.5;entryY=0;entryDx=0;entryDy=0;" edge="1" parent="H7dNSjDBitGNbYNH8bIm-282" source="H7dNSjDBitGNbYNH8bIm-283" target="H7dNSjDBitGNbYNH8bIm-294">
          <mxGeometry relative="1" as="geometry" />
        </mxCell>
        <mxCell id="H7dNSjDBitGNbYNH8bIm-296" style="edgeStyle=orthogonalEdgeStyle;rounded=0;orthogonalLoop=1;jettySize=auto;html=1;exitX=0.5;exitY=1;exitDx=0;exitDy=0;entryX=1;entryY=0.5;entryDx=0;entryDy=0;" edge="1" parent="H7dNSjDBitGNbYNH8bIm-282" source="H7dNSjDBitGNbYNH8bIm-297" target="H7dNSjDBitGNbYNH8bIm-290">
          <mxGeometry relative="1" as="geometry" />
        </mxCell>
        <mxCell id="H7dNSjDBitGNbYNH8bIm-297" value="found = true;" style="rounded=0;whiteSpace=wrap;html=1;" vertex="1" parent="H7dNSjDBitGNbYNH8bIm-282">
          <mxGeometry x="174" y="335.5" width="120" height="60" as="geometry" />
        </mxCell>
        <mxCell id="H7dNSjDBitGNbYNH8bIm-298" style="edgeStyle=orthogonalEdgeStyle;rounded=0;orthogonalLoop=1;jettySize=auto;html=1;exitX=1;exitY=0.5;exitDx=0;exitDy=0;entryX=0.5;entryY=0;entryDx=0;entryDy=0;" edge="1" parent="H7dNSjDBitGNbYNH8bIm-282" source="H7dNSjDBitGNbYNH8bIm-291" target="H7dNSjDBitGNbYNH8bIm-297">
          <mxGeometry relative="1" as="geometry">
            <Array as="points">
              <mxPoint x="234" y="279.5" />
            </Array>
          </mxGeometry>
        </mxCell>
        <mxCell id="H7dNSjDBitGNbYNH8bIm-299" style="edgeStyle=orthogonalEdgeStyle;rounded=0;orthogonalLoop=1;jettySize=auto;html=1;exitX=0;exitY=0.5;exitDx=0;exitDy=0;entryX=0;entryY=0.5;entryDx=0;entryDy=0;" edge="1" parent="H7dNSjDBitGNbYNH8bIm-282" source="H7dNSjDBitGNbYNH8bIm-300" target="H7dNSjDBitGNbYNH8bIm-294">
          <mxGeometry relative="1" as="geometry">
            <Array as="points">
              <mxPoint y="365.5" />
              <mxPoint y="180.5" />
            </Array>
          </mxGeometry>
        </mxCell>
        <mxCell id="H7dNSjDBitGNbYNH8bIm-300" value="increment indx" style="rounded=0;whiteSpace=wrap;html=1;" vertex="1" parent="H7dNSjDBitGNbYNH8bIm-282">
          <mxGeometry x="10" y="335.5" width="120" height="60" as="geometry" />
        </mxCell>
        <mxCell id="H7dNSjDBitGNbYNH8bIm-301" style="edgeStyle=orthogonalEdgeStyle;rounded=0;orthogonalLoop=1;jettySize=auto;html=1;exitX=0;exitY=0.5;exitDx=0;exitDy=0;entryX=0.5;entryY=0;entryDx=0;entryDy=0;" edge="1" parent="H7dNSjDBitGNbYNH8bIm-282" source="H7dNSjDBitGNbYNH8bIm-291" target="H7dNSjDBitGNbYNH8bIm-300">
          <mxGeometry relative="1" as="geometry">
            <Array as="points">
              <mxPoint x="70" y="279.5" />
            </Array>
          </mxGeometry>
        </mxCell>
        <mxCell id="H7dNSjDBitGNbYNH8bIm-302" value="No" style="text;html=1;strokeColor=none;fillColor=none;align=center;verticalAlign=middle;whiteSpace=wrap;rounded=0;" vertex="1" parent="H7dNSjDBitGNbYNH8bIm-282">
          <mxGeometry x="219" y="151" width="60" height="30" as="geometry" />
        </mxCell>
        <mxCell id="H7dNSjDBitGNbYNH8bIm-303" value="Yes" style="text;html=1;strokeColor=none;fillColor=none;align=center;verticalAlign=middle;whiteSpace=wrap;rounded=0;" vertex="1" parent="H7dNSjDBitGNbYNH8bIm-282">
          <mxGeometry x="99" y="218" width="60" height="30" as="geometry" />
        </mxCell>
      </root>
    </mxGraphModel>
  </diagram>
</mxfile>
